<svg width="20" height="20" viewBox="0 0 20 20" fill="none" xmlns="http://www.w3.org/2000/svg">
<path d="M17.1429 8.57143H15.7143V5.71429C15.7143 4.19876 15.1123 2.74531 14.0406 1.67368C12.969 0.602039 11.5155 0 10 0C8.48449 0 7.03104 0.602039 5.95941 1.67368C4.88777 2.74531 4.28573 4.19876 4.28573 5.71429V8.57143H2.85716L1.42859 10V18.5714L2.85716 20H17.1429L18.5714 18.5714V10L17.1429 8.57143ZM5.7143 5.71429C5.7143 4.57764 6.16583 3.48756 6.96956 2.68383C7.77329 1.8801 8.86337 1.42857 10 1.42857C11.1367 1.42857 12.2267 1.8801 13.0305 2.68383C13.8342 3.48756 14.2857 4.57764 14.2857 5.71429V8.57143H5.7143V5.71429ZM17.1429 18.5714H2.85716V10H17.1429V18.5714Z" fill="#FEFFFF"/>
</svg>
