<svg width="20" height="20" viewBox="0 0 20 20" fill="none" xmlns="http://www.w3.org/2000/svg">
<path d="M17.3828 5.25391L18.2383 4.15234L15.8477 1.76168L14.7461 2.61719C13.8672 2.05465 12.8829 1.64453 11.8633 1.42188L11.6875 0H8.3125L8.13668 1.42188C7.11715 1.64453 6.13281 2.05465 5.25391 2.61719L4.15234 1.76168L1.76168 4.15234L2.61719 5.25391C2.05465 6.13281 1.64453 7.11715 1.42188 8.13668L0 8.3125V11.6875L1.42188 11.8632C1.64453 12.8828 2.05465 13.8672 2.61719 14.7461L1.76168 15.8477L4.15234 18.2382L5.25391 17.3828C6.13281 17.9453 7.11715 18.3555 8.13668 18.5782L8.3125 20H11.6875L11.8633 18.5781C12.8829 18.3555 13.8672 17.9453 14.7461 17.3828L15.8477 18.2382L18.2383 15.8477L17.3828 14.7461C17.9454 13.8672 18.3555 12.8828 18.5782 11.8632L20 11.6875V8.3125L18.5781 8.13668C18.3555 7.11715 17.9454 6.13281 17.3828 5.25391ZM10 16.4453C6.44918 16.4453 3.55469 13.5507 3.55469 10C3.55469 6.44918 6.44918 3.55469 10 3.55469C13.5508 3.55469 16.4453 6.44918 16.4453 10C16.4453 13.5507 13.5508 16.4453 10 16.4453Z" fill="#FEFFFF"/>
<path d="M11.608 8.99391C11.1521 8.75319 10.669 8.57542 10.1897 8.38654C9.91308 8.27914 9.64813 8.14952 9.41436 7.97176C8.9546 7.61993 9.04032 7.0533 9.5819 6.82739C9.73385 6.76443 9.8936 6.74221 10.0572 6.7348C10.6845 6.70147 11.2768 6.81257 11.8456 7.07182C12.1262 7.20144 12.2197 7.1607 12.3171 6.88294C12.4184 6.58666 12.5041 6.28668 12.5937 5.9904C12.656 5.79042 12.5781 5.65709 12.3794 5.57562C12.0171 5.42378 11.643 5.31267 11.2495 5.25712C10.7391 5.17935 10.7391 5.17935 10.7352 4.69049C10.7313 3.99794 10.7313 3.99794 10.0066 4.00165C9.90139 4.00165 9.79619 3.99794 9.69099 4.00165C9.35202 4.01276 9.29357 4.06831 9.28578 4.39051C9.28189 4.53494 9.28578 4.68308 9.28578 4.82752C9.28189 5.26082 9.28189 5.25342 8.8455 5.40155C7.79352 5.76449 7.14284 6.44593 7.07271 7.53845C7.01037 8.50505 7.54026 9.15686 8.37406 9.63091C8.88836 9.92348 9.45722 10.0975 10.0027 10.3272C10.217 10.416 10.4196 10.5197 10.5949 10.6605C11.1209 11.0716 11.0235 11.7567 10.4001 12.0159C10.065 12.153 9.71437 12.19 9.35591 12.1456C8.79875 12.0789 8.26496 11.9419 7.76624 11.6937C7.47402 11.5493 7.3883 11.5863 7.287 11.89C7.20128 12.153 7.12336 12.4159 7.04933 12.6789C6.94803 13.0344 6.98309 13.1196 7.34155 13.2825C7.79352 13.4899 8.28055 13.5973 8.77537 13.6751C9.1611 13.7343 9.17669 13.7492 9.18058 14.1306C9.18058 14.3047 9.18448 14.4787 9.18448 14.6491C9.18838 14.8676 9.29747 14.9935 9.53514 14.9972C9.80398 15.0009 10.0728 15.0009 10.3417 14.9972C10.5599 14.9935 10.6728 14.8787 10.6767 14.6676C10.6767 14.4306 10.6884 14.1936 10.6806 13.9565C10.669 13.7158 10.778 13.5936 11.0235 13.5307C11.5846 13.3862 12.0638 13.0973 12.434 12.6714C13.447 11.4863 13.0574 9.75682 11.608 8.99391Z" fill="#FEFFFF"/>
</svg>
