<svg width="18" height="20" viewBox="0 0 18 20" fill="none" xmlns="http://www.w3.org/2000/svg">
<path d="M16.6461 20H1.35385C0.696999 20 0.164551 19.4675 0.164551 18.8107V17.1563L17.8354 13.9452V18.8107C17.8354 19.4675 17.3029 20 16.6461 20Z" fill="#CDBFBA"/>
<path d="M13.4107 18.8107H1.35583C0.69791 18.8107 0.164551 18.2774 0.164551 17.6194V2.84735C0.164551 2.18943 0.69791 1.65607 1.35583 1.65607H16.6441C17.302 1.65607 17.8354 2.18943 17.8354 2.84735V14.386C17.8354 14.7019 17.1152 15.0049 16.8918 15.2284L14.253 17.8671C14.0297 18.0906 13.7267 18.8107 13.4107 18.8107Z" fill="#F9F3F1"/>
<path d="M13.4051 18.8107C13.721 18.8107 14.024 18.6852 14.2474 18.4618L17.4864 15.2228C17.7098 14.9994 17.8353 14.6964 17.8353 14.3804V13.8978C17.8353 14.4369 17.3984 14.8739 16.8593 14.8739H14.8746C14.3355 14.8739 13.8985 15.3108 13.8985 15.8499V17.8346C13.8985 18.3737 13.4616 18.8107 12.9225 18.8107H13.4051V18.8107Z" fill="#EFE2DD"/>
<path d="M17.8352 2.84518V5.90484H0.164673V2.84518C0.164673 2.18869 0.697081 1.65588 1.35397 1.65588H16.6459C17.3028 1.65588 17.8352 2.18869 17.8352 2.84518Z" fill="#988050"/>
<path d="M3.53114 3.73172C3.30431 3.73172 3.11172 3.7316 2.9476 3.7316C2.44889 3.7316 2.04333 3.32605 2.04333 2.82774V1.65588H2.63798V2.82774C2.63798 2.9982 2.77673 3.13695 2.9476 3.13695C3.11172 3.13695 3.69527 3.73172 3.53114 3.73172Z" fill="#FDB441"/>
<path d="M14.3322 3.73172C14.3322 3.73172 13.9129 3.7316 13.7483 3.7316C13.25 3.7316 12.8445 3.32605 12.8445 2.82774V1.65588H13.4391V2.82774C13.4391 2.9982 13.5779 3.13695 13.7483 3.13695C13.9129 3.13695 14.3322 3.5676 14.3322 3.73172Z" fill="#FDB441"/>
<path d="M3.9772 1.65606V0.904143C3.9772 0.733479 3.83837 0.594648 3.66771 0.594648H3.53122C3.36055 0.594648 3.22172 0.733479 3.22172 0.904143V2.82763C3.22172 2.9983 3.36055 3.13713 3.53122 3.13713C3.69542 3.13713 3.82854 3.27025 3.82854 3.43445C3.82854 3.59865 3.69542 3.73177 3.53122 3.73177C3.03267 3.73177 2.62708 3.32618 2.62708 2.82763V0.904143C2.62708 0.40559 3.03267 0 3.53122 0H3.66771C4.16626 0 4.57185 0.40559 4.57185 0.904143V1.65606H3.9772Z" fill="#554E56"/>
<path d="M14.7782 1.65606V0.904143C14.7782 0.733479 14.6394 0.594648 14.4687 0.594648H14.3322C14.1616 0.594648 14.0227 0.733479 14.0227 0.904143V2.82763C14.0227 2.9983 14.1616 3.13713 14.3322 3.13713C14.4964 3.13713 14.6296 3.27025 14.6296 3.43445C14.6296 3.59865 14.4964 3.73177 14.3322 3.73177C13.8337 3.73177 13.4281 3.32618 13.4281 2.82763V0.904143C13.4281 0.40559 13.8337 0 14.3322 0H14.4687C14.9673 0 15.3729 0.40559 15.3729 0.904143V1.65606H14.7782Z" fill="#554E56"/>
<path d="M3.64747 9.67051H2.23166C2.07527 9.67051 1.94849 9.54373 1.94849 9.38734V7.97153C1.94849 7.81513 2.07527 7.68835 2.23166 7.68835H3.64747C3.80387 7.68835 3.93065 7.81513 3.93065 7.97153V9.38734C3.93065 9.54373 3.80387 9.67051 3.64747 9.67051Z" fill="#FEDBA6"/>
<path d="M7.68776 9.67051H6.27194C6.11555 9.67051 5.98877 9.54373 5.98877 9.38734V7.97153C5.98877 7.81513 6.11555 7.68835 6.27194 7.68835H7.68776C7.84415 7.68835 7.97093 7.81513 7.97093 7.97153V9.38734C7.97093 9.54373 7.84415 9.67051 7.68776 9.67051Z" fill="#FEDBA6"/>
<path d="M11.728 9.67051H10.3122C10.1558 9.67051 10.0291 9.54373 10.0291 9.38734V7.97153C10.0291 7.81513 10.1558 7.68835 10.3122 7.68835H11.728C11.8844 7.68835 12.0112 7.81513 12.0112 7.97153V9.38734C12.0112 9.54373 11.8844 9.67051 11.728 9.67051Z" fill="#FEDBA6"/>
<path d="M15.7683 9.67051H14.3525C14.1961 9.67051 14.0693 9.54373 14.0693 9.38734V7.97153C14.0693 7.81513 14.1961 7.68835 14.3525 7.68835H15.7683C15.9247 7.68835 16.0515 7.81513 16.0515 7.97153V9.38734C16.0515 9.54373 15.9247 9.67051 15.7683 9.67051Z" fill="#FEDBA6"/>
<path d="M3.64747 13.3483H2.23166C2.07527 13.3483 1.94849 13.2216 1.94849 13.0652V11.6494C1.94849 11.493 2.07527 11.3662 2.23166 11.3662H3.64747C3.80387 11.3662 3.93065 11.493 3.93065 11.6494V13.0652C3.93065 13.2216 3.80387 13.3483 3.64747 13.3483Z" fill="#FEDBA6"/>
<path d="M7.68776 13.3483H6.27194C6.11555 13.3483 5.98877 13.2216 5.98877 13.0652V11.6494C5.98877 11.493 6.11555 11.3662 6.27194 11.3662H7.68776C7.84415 11.3662 7.97093 11.493 7.97093 11.6494V13.0652C7.97093 13.2216 7.84415 13.3483 7.68776 13.3483Z" fill="#FEDBA6"/>
<path d="M11.728 13.3483H10.3122C10.1558 13.3483 10.0291 13.2216 10.0291 13.0652V11.6494C10.0291 11.493 10.1558 11.3662 10.3122 11.3662H11.728C11.8844 11.3662 12.0112 11.493 12.0112 11.6494V13.0652C12.0112 13.2216 11.8844 13.3483 11.728 13.3483Z" fill="#FEDBA6"/>
<path d="M15.7683 13.4366H14.3525C14.1961 13.4366 14.0693 13.3098 14.0693 13.1534V11.7376C14.0693 11.5812 14.1961 11.4544 14.3525 11.4544H15.7683C15.9247 11.4544 16.0515 11.5812 16.0515 11.7376V13.1534C16.0515 13.3098 15.9247 13.4366 15.7683 13.4366Z" fill="#FEDBA6"/>
<path d="M3.64747 17.0262H2.23166C2.07527 17.0262 1.94849 16.8994 1.94849 16.743V15.3272C1.94849 15.1708 2.07527 15.044 2.23166 15.044H3.64747C3.80387 15.044 3.93065 15.1708 3.93065 15.3272V16.743C3.93065 16.8994 3.80387 17.0262 3.64747 17.0262Z" fill="#FEDBA6"/>
<path d="M7.68776 17.0262H6.27194C6.11555 17.0262 5.98877 16.8994 5.98877 16.743V15.3272C5.98877 15.1708 6.11555 15.044 6.27194 15.044H7.68776C7.84415 15.044 7.97093 15.1708 7.97093 15.3272V16.743C7.97093 16.8994 7.84415 17.0262 7.68776 17.0262Z" fill="#FEDBA6"/>
<path d="M11.728 17.0262H10.3122C10.1558 17.0262 10.0291 16.8994 10.0291 16.743V15.3272C10.0291 15.1708 10.1558 15.044 10.3122 15.044H11.728C11.8844 15.044 12.0112 15.1708 12.0112 15.3272V16.743C12.0112 16.8994 11.8844 17.0262 11.728 17.0262Z" fill="#FEDBA6"/>
</svg>
