<svg width="20" height="13" viewBox="0 0 20 13" fill="none" xmlns="http://www.w3.org/2000/svg">
<path d="M10 3.21863C8.22421 3.21863 6.78137 4.66147 6.78137 6.43727C6.78137 8.21308 8.22421 9.65592 10 9.65592C11.7758 9.65592 13.2187 8.21308 13.2187 6.43727C13.2187 4.66147 11.7758 3.21863 10 3.21863ZM9.75584 5.48278C9.35629 5.48278 9.02333 5.81574 9.02333 6.2153H7.95784C7.98004 5.21641 8.77915 4.4173 9.75584 4.4173V5.48278Z" fill="#BDBDBD"/>
<path d="M19.7669 5.77136C18.6792 4.41731 14.7947 0 10 0C5.20533 0 1.32075 4.41731 0.233074 5.77136C-0.0776914 6.14872 -0.0776914 6.70366 0.233074 7.10322C1.32075 8.45727 5.20533 12.8746 10 12.8746C14.7947 12.8746 18.6792 8.45727 19.7669 7.10322C20.0777 6.72586 20.0777 6.17092 19.7669 5.77136ZM10 11.0988C7.42508 11.0988 5.33851 9.01221 5.33851 6.43729C5.33851 3.86238 7.42508 1.7758 10 1.7758C12.5749 1.7758 14.6615 3.86238 14.6615 6.43729C14.6615 9.01221 12.5749 11.0988 10 11.0988Z" fill="#BDBDBD"/>
</svg>
