<svg width="40" height="41" viewBox="0 0 40 41" fill="none" xmlns="http://www.w3.org/2000/svg">
<path d="M17.0833 24.9167H15.4166C14.7266 24.9167 14.1666 24.3567 14.1666 23.6667C14.1666 22.9767 14.7266 22.4167 15.4166 22.4167H17.0833C18.2316 22.4167 19.1666 21.4817 19.1666 20.3333V12C19.1666 11.31 19.7266 10.75 20.4166 10.75C21.1066 10.75 21.6666 11.31 21.6666 12V20.3333C21.6666 22.8617 19.6116 24.9167 17.0833 24.9167Z" fill="url(#paint0_linear_6249_2251)"/>
<path d="M19.1666 33.6667C16.34 33.6667 13.6916 32.1533 12.2566 29.7183C11.9066 29.1233 12.105 28.3583 12.7 28.0067C13.2916 27.6533 14.06 27.8533 14.4116 28.4483C15.4 30.125 17.2233 31.1667 19.1683 31.1667C21.1133 31.1667 22.9366 30.125 23.925 28.4483C24.2766 27.8533 25.0416 27.6517 25.6366 28.0067C26.23 28.3567 26.43 29.1233 26.08 29.7183C24.6416 32.1533 21.9933 33.6667 19.1666 33.6667Z" fill="url(#paint1_linear_6249_2251)"/>
<path d="M38.75 14.6633C38.06 14.6633 37.5 14.1033 37.5 13.4133V5.33333C37.5 4.185 36.565 3.25 35.4167 3.25H27.3367C26.6467 3.25 26.0867 2.69 26.0867 2C26.0867 1.31 26.6467 0.75 27.3367 0.75H35.4167C37.945 0.75 40 2.80667 40 5.33333V13.4133C40 14.1033 39.44 14.6633 38.75 14.6633Z" fill="url(#paint2_linear_6249_2251)"/>
<path d="M1.25 14.6633C0.56 14.6633 0 14.1033 0 13.4133V5.33333C0 2.80667 2.055 0.75 4.58333 0.75H12.6633C13.3533 0.75 13.9133 1.31 13.9133 2C13.9133 2.69 13.3533 3.25 12.6633 3.25H4.58333C3.435 3.25 2.5 4.185 2.5 5.33333V13.4133C2.5 14.1033 1.94 14.6633 1.25 14.6633Z" fill="url(#paint3_linear_6249_2251)"/>
<path d="M35.4167 40.75H27.3367C26.6467 40.75 26.0867 40.19 26.0867 39.5C26.0867 38.81 26.6467 38.25 27.3367 38.25H35.4167C36.565 38.25 37.5 37.315 37.5 36.1667V28.0867C37.5 27.3967 38.06 26.8367 38.75 26.8367C39.44 26.8367 40 27.3967 40 28.0867V36.1667C40 38.6933 37.945 40.75 35.4167 40.75Z" fill="url(#paint4_linear_6249_2251)"/>
<path d="M12.6633 40.75H4.58333C2.055 40.75 0 38.6933 0 36.1667V28.0867C0 27.3967 0.56 26.8367 1.25 26.8367C1.94 26.8367 2.5 27.3967 2.5 28.0867V36.1667C2.5 37.315 3.435 38.25 4.58333 38.25H12.6633C13.3533 38.25 13.9133 38.81 13.9133 39.5C13.9133 40.19 13.3533 40.75 12.6633 40.75Z" fill="url(#paint5_linear_6249_2251)"/>
<path d="M9.58337 10.75C8.89337 10.75 8.33337 11.31 8.33337 12V14.5C8.33337 15.19 8.89337 15.75 9.58337 15.75C10.2734 15.75 10.8334 15.19 10.8334 14.5V12C10.8334 11.31 10.2734 10.75 9.58337 10.75Z" fill="url(#paint6_linear_6249_2251)"/>
<path d="M28.75 10.75C28.06 10.75 27.5 11.31 27.5 12V14.5C27.5 15.19 28.06 15.75 28.75 15.75C29.44 15.75 30 15.19 30 14.5V12C30 11.31 29.44 10.75 28.75 10.75Z" fill="url(#paint7_linear_6249_2251)"/>
<defs>
<linearGradient id="paint0_linear_6249_2251" x1="16.6041" y1="10.75" x2="24.5082" y2="21.2113" gradientUnits="userSpaceOnUse">
<stop stop-color="#DAB451"/>
<stop offset="1" stop-color="#988050"/>
</linearGradient>
<linearGradient id="paint1_linear_6249_2251" x1="16.6886" y1="27.8312" x2="17.7743" y2="34.4215" gradientUnits="userSpaceOnUse">
<stop stop-color="#DAB451"/>
<stop offset="1" stop-color="#988050"/>
</linearGradient>
<linearGradient id="paint2_linear_6249_2251" x1="30.6085" y1="0.75" x2="36.1738" y2="14.6633" gradientUnits="userSpaceOnUse">
<stop stop-color="#DAB451"/>
<stop offset="1" stop-color="#988050"/>
</linearGradient>
<linearGradient id="paint3_linear_6249_2251" x1="4.52183" y1="0.75" x2="10.0872" y2="14.6633" gradientUnits="userSpaceOnUse">
<stop stop-color="#DAB451"/>
<stop offset="1" stop-color="#988050"/>
</linearGradient>
<linearGradient id="paint4_linear_6249_2251" x1="30.6085" y1="26.8367" x2="36.1738" y2="40.75" gradientUnits="userSpaceOnUse">
<stop stop-color="#DAB451"/>
<stop offset="1" stop-color="#988050"/>
</linearGradient>
<linearGradient id="paint5_linear_6249_2251" x1="4.52183" y1="26.8367" x2="10.0872" y2="40.75" gradientUnits="userSpaceOnUse">
<stop stop-color="#DAB451"/>
<stop offset="1" stop-color="#988050"/>
</linearGradient>
<linearGradient id="paint6_linear_6249_2251" x1="9.14587" y1="10.75" x2="11.9751" y2="14.2866" gradientUnits="userSpaceOnUse">
<stop stop-color="#DAB451"/>
<stop offset="1" stop-color="#988050"/>
</linearGradient>
<linearGradient id="paint7_linear_6249_2251" x1="28.3125" y1="10.75" x2="31.1418" y2="14.2866" gradientUnits="userSpaceOnUse">
<stop stop-color="#DAB451"/>
<stop offset="1" stop-color="#988050"/>
</linearGradient>
</defs>
</svg>
