<svg width="20" height="20" viewBox="0 0 20 20" fill="none" xmlns="http://www.w3.org/2000/svg">
<path d="M18.1517 4.22769C18.1514 4.22124 18.1507 4.2148 18.1496 4.20839C18.1246 4.17268 18.0938 4.14195 18.0681 4.10695C17.8814 3.85258 17.6837 3.60776 17.4751 3.37244C17.4179 3.30813 17.3607 3.24454 17.3022 3.18166C17.0874 2.95161 16.8621 2.73224 16.6263 2.52363C16.5827 2.48503 16.542 2.44505 16.4984 2.40717C15.9173 1.90935 15.281 1.47974 14.6021 1.12682C14.5749 1.11254 14.5464 1.1004 14.5185 1.08608C14.2162 0.932441 13.9062 0.794329 13.5897 0.672378C13.5182 0.646673 13.4532 0.622349 13.3853 0.600915C13.1038 0.499477 12.818 0.41064 12.5279 0.334404C12.4422 0.311546 12.3565 0.287976 12.2693 0.267965C11.9835 0.201526 11.6977 0.150786 11.4055 0.10934C11.3169 0.0964875 11.2297 0.079323 11.1404 0.0686057C10.3877 -0.0228686 9.62671 -0.0228686 8.87399 0.0686057C8.78469 0.079323 8.69753 0.0964875 8.6089 0.10934C8.31669 0.150786 8.02803 0.201526 7.74507 0.267965C7.6579 0.287976 7.57216 0.311546 7.48643 0.334404C7.19442 0.410598 6.90865 0.499435 6.62904 0.600915C6.55758 0.625196 6.49256 0.64952 6.4247 0.672378C6.10824 0.794329 5.79819 0.932399 5.49585 1.08608C5.46796 1.10036 5.43941 1.1125 5.41224 1.12682C4.73106 1.47936 4.09267 1.90893 3.50953 2.40717C3.46595 2.44501 3.42522 2.48503 3.38164 2.52363C3.14347 2.73321 2.91815 2.95258 2.70573 3.18166C2.64716 3.24454 2.58998 3.30813 2.53283 3.37244C2.32372 3.60726 2.12603 3.85208 1.93982 4.10691C1.91411 4.14191 1.88339 4.17264 1.85835 4.20835C1.85509 4.21459 1.8522 4.22103 1.84977 4.22765C-0.614636 7.68136 -0.614636 12.3187 1.84977 15.7724C1.8522 15.779 1.85504 15.7854 1.85835 15.7917C1.88334 15.8274 1.91407 15.8581 1.93982 15.8931C2.12608 16.1475 2.32372 16.3923 2.53283 16.6276C2.58998 16.6919 2.64716 16.7555 2.70573 16.8184C2.92104 17.0484 3.14632 17.2678 3.38164 17.4764C3.42522 17.515 3.46595 17.555 3.50953 17.5929C4.09062 18.0907 4.72688 18.5203 5.40579 18.8732C5.43296 18.8875 5.46152 18.8997 5.4894 18.914C5.79174 19.0676 6.10175 19.2057 6.41825 19.3277C6.48971 19.3534 6.55473 19.3777 6.62259 19.3991C6.90409 19.5006 7.1899 19.5894 7.47998 19.6657C7.56572 19.6885 7.65146 19.7121 7.73862 19.7321C8.02443 19.7985 8.3102 19.8493 8.60245 19.8907C8.69104 19.9036 8.7782 19.9207 8.86754 19.9315C9.62023 20.0229 10.3812 20.0229 11.1339 19.9315C11.2232 19.9207 11.3104 19.9036 11.399 19.8907C11.6912 19.8493 11.9799 19.7985 12.2628 19.7321C12.35 19.7121 12.4357 19.6885 12.5215 19.6657C12.814 19.5895 13.0998 19.5006 13.3789 19.3991C13.4503 19.3749 13.5154 19.3505 13.5832 19.3277C13.8997 19.2057 14.2097 19.0677 14.5121 18.914C14.5399 18.8997 14.5685 18.8876 14.5957 18.8732C15.2746 18.5203 15.9108 18.0907 16.4919 17.5929C16.5355 17.555 16.5762 17.515 16.6198 17.4764C16.858 17.2673 17.0833 17.048 17.2957 16.8184C17.3543 16.7555 17.4115 16.6919 17.4686 16.6276C17.6777 16.3923 17.8754 16.1475 18.0616 15.8931C18.0874 15.8581 18.1181 15.8274 18.1431 15.7917C18.1464 15.7854 18.1493 15.779 18.1517 15.7724C20.6161 12.3187 20.6161 7.6814 18.1517 4.22769ZM17.3365 5.57954C18.0198 6.70491 18.4324 7.97357 18.5418 9.28561H14.262C14.2096 8.43425 14.0756 7.58992 13.8619 6.76419C15.0708 6.53778 16.241 6.13881 17.3365 5.57954ZM11.822 1.62338C11.862 1.63267 11.9006 1.64552 11.9406 1.65482C12.1964 1.71485 12.4501 1.78342 12.698 1.86916C12.7359 1.88201 12.773 1.89704 12.8102 1.91061C13.056 1.99635 13.2982 2.09138 13.5354 2.19642C13.5769 2.21572 13.6176 2.23715 13.659 2.25645C13.8862 2.36459 14.1082 2.48152 14.3249 2.60728L14.4678 2.69373C14.6736 2.81949 14.8737 2.95404 15.068 3.09743C15.118 3.13385 15.168 3.16889 15.2173 3.20887C15.4078 3.35176 15.5903 3.5049 15.7646 3.6683C15.8103 3.70974 15.8575 3.75048 15.9025 3.79335C16.0854 3.96696 16.2598 4.15058 16.4284 4.34064C16.4498 4.36563 16.4727 4.38849 16.4941 4.4121C15.5267 4.87316 14.5018 5.20238 13.4468 5.39094C12.9581 4.04742 12.3125 2.76628 11.5234 1.57414C11.6227 1.59198 11.7241 1.60198 11.822 1.62338ZM7.17211 9.28557C7.22846 8.5125 7.36008 7.74675 7.56509 6.99921C8.37463 7.09538 9.18915 7.14306 10.0044 7.1421C10.8204 7.14185 11.6356 7.09295 12.4458 6.99561C12.6504 7.74436 12.7813 8.51132 12.8366 9.28557H7.17211ZM12.8366 10.7146C12.7803 11.4876 12.6486 12.2534 12.4436 13.0009C11.6341 12.9048 10.8196 12.8571 10.0043 12.858C9.18839 12.8571 8.37316 12.9048 7.56291 13.0009C7.35849 12.2534 7.22762 11.4876 7.17206 10.7146H12.8366ZM10.0043 1.89206C10.8174 3.04447 11.4862 4.29225 11.9956 5.60742C11.3342 5.67767 10.6695 5.71297 10.0043 5.71317C9.3399 5.71238 8.67593 5.67688 8.01518 5.60671C8.52526 4.29241 9.19321 3.04506 10.0043 1.89206ZM3.58108 4.33989C3.749 4.14982 3.92404 3.9662 4.10694 3.79259C4.15195 3.74972 4.19913 3.70899 4.24485 3.66754C4.4211 3.50703 4.60354 3.35389 4.79214 3.20812C4.84146 3.17023 4.89144 3.13666 4.94147 3.09668C5.13581 2.95379 5.33588 2.8192 5.54165 2.69297L5.68453 2.60652C5.90126 2.47984 6.12323 2.36287 6.35043 2.2557C6.39187 2.2364 6.43261 2.21496 6.47405 2.19566C6.71126 2.08849 6.95349 1.99346 7.19928 1.90985C7.23641 1.89629 7.27074 1.88126 7.31143 1.86841C7.55935 1.78552 7.81159 1.71694 8.0688 1.65406C8.10883 1.64477 8.14739 1.63192 8.18812 1.62333C8.286 1.6019 8.38748 1.59189 8.48678 1.57402C7.69738 2.76636 7.05158 4.04776 6.56264 5.39153C5.50769 5.20297 4.48276 4.87375 3.51535 4.41269C3.53679 4.38774 3.55965 4.36488 3.58108 4.33989ZM2.67224 5.57954C3.76746 6.13877 4.93737 6.53774 6.14609 6.76419C5.93262 7.58997 5.79886 8.43429 5.7467 9.28561H1.46692C1.57635 7.97357 1.98897 6.70491 2.67224 5.57954ZM2.67224 14.4206C1.98893 13.2953 1.57631 12.0266 1.46692 10.7146H5.7467C5.79911 11.5659 5.93308 12.4103 6.1468 13.236C4.93787 13.4624 3.76771 13.8613 2.67224 14.4206ZM8.1867 18.3768C8.14667 18.3675 8.10812 18.3546 8.06809 18.3453C7.8123 18.2853 7.55864 18.2167 7.31072 18.131C7.27283 18.1181 7.2357 18.1031 7.19852 18.0895C6.95274 18.0038 6.71055 17.9088 6.4733 17.8037C6.43186 17.7844 6.39112 17.763 6.34968 17.7437C6.12248 17.6356 5.90051 17.5186 5.68378 17.3929L5.54089 17.3064C5.33513 17.1807 5.13506 17.0461 4.94072 16.9027C4.89069 16.8663 4.8407 16.8313 4.79139 16.7913C4.60086 16.6484 4.41842 16.4952 4.24409 16.3319C4.19838 16.2904 4.15119 16.2497 4.10619 16.2068C3.92328 16.0332 3.74896 15.8496 3.58033 15.6595C3.55889 15.6345 3.53603 15.6117 3.5146 15.588C4.48205 15.127 5.50694 14.7978 6.56189 14.6092C7.05061 15.9527 7.69621 17.2339 8.48527 18.426C8.38601 18.4082 8.28458 18.3982 8.1867 18.3768ZM10.0043 18.1081C9.19124 16.9557 8.52249 15.7079 8.01304 14.3928C9.33626 14.2503 10.6709 14.2503 11.9942 14.3928L11.9934 14.3935C11.4835 15.7077 10.8155 16.9551 10.0043 18.1081ZM16.4276 15.6603C16.2597 15.8503 16.0847 16.0339 15.9018 16.2076C15.8568 16.2504 15.8096 16.2912 15.7639 16.3326C15.5876 16.4936 15.4052 16.6468 15.2166 16.792C15.1672 16.8299 15.1173 16.867 15.0672 16.9035C14.8729 17.0464 14.6728 17.1809 14.4671 17.3072L14.3242 17.3936C14.1079 17.5198 13.8859 17.6368 13.6583 17.7444C13.6168 17.7637 13.5761 17.7852 13.5347 17.8045C13.2974 17.9117 13.0552 18.0067 12.8094 18.0903C12.7723 18.1039 12.738 18.1189 12.6973 18.1317C12.4494 18.2146 12.1971 18.2832 11.9399 18.3461C11.8999 18.3554 11.8613 18.3682 11.8206 18.3768C11.7227 18.3982 11.6212 18.4083 11.5219 18.4261C12.311 17.234 12.9566 15.9528 13.4453 14.6093C14.5003 14.7979 15.5252 15.1271 16.4926 15.5882C16.4719 15.6124 16.4491 15.6353 16.4276 15.6603ZM17.3365 14.4206C16.2412 13.8614 15.0713 13.4624 13.8626 13.236C14.0761 12.4102 14.2098 11.5659 14.262 10.7146H18.5418C18.4324 12.0266 18.0197 13.2952 17.3365 14.4206Z" fill="#FEFFFF"/>
</svg>
