<svg width="20" height="20" viewBox="0 0 20 20" fill="none" xmlns="http://www.w3.org/2000/svg">
<path d="M3.19659 13.201C3.74992 13.696 4.37742 14.0885 5.04992 14.3835L8.58659 12.1627C9.31825 11.701 10.2983 11.8102 10.9108 12.426L12.0999 13.6152C13.8824 12.301 14.9999 10.1985 14.9999 7.91683C14.9999 4.011 11.8224 0.833496 7.91659 0.833496C4.01075 0.833496 0.833252 4.011 0.833252 7.91683C0.833252 9.93266 1.69409 11.8585 3.19659 13.201ZM8.23325 8.54183H7.59992C6.62575 8.54183 5.83325 7.74933 5.83325 6.77516C5.83325 5.89933 6.46492 5.17849 7.29159 5.03183V4.37516C7.29159 4.03016 7.57159 3.75016 7.91659 3.75016C8.26159 3.75016 8.54159 4.03016 8.54159 4.37516V5.00016H9.37492C9.71992 5.00016 9.99992 5.28016 9.99992 5.62516C9.99992 5.97016 9.71992 6.25016 9.37492 6.25016H7.59992C7.31492 6.25016 7.08325 6.48183 7.08325 6.76683C7.08325 7.06016 7.31492 7.29183 7.59992 7.29183H8.23325C9.20742 7.29183 9.99992 8.08433 9.99992 9.05849C9.99992 9.93433 9.36825 10.6552 8.54159 10.8018V11.4577C8.54159 11.8027 8.26159 12.0827 7.91659 12.0827C7.57159 12.0827 7.29159 11.8027 7.29159 11.4577V10.8335H6.45825C6.11325 10.8335 5.83325 10.5535 5.83325 10.2085C5.83325 9.86349 6.11325 9.58349 6.45825 9.58349H8.23325C8.51825 9.58349 8.74992 9.35183 8.74992 9.06683C8.74992 8.77349 8.51825 8.54183 8.23325 8.54183Z" fill="#FEFFFF"/>
<path d="M19.1666 10H15.8333C15.4966 10 15.1916 10.2033 15.0633 10.5142C14.9341 10.8258 15.0058 11.1842 15.2441 11.4225L16.3216 12.5L12.9166 15.905L10.1724 13.1608C9.89994 12.8867 9.47161 12.8392 9.14494 13.0417L0.394941 18.4583C0.00327424 18.7008 -0.116726 19.2142 0.124941 19.605C0.282441 19.86 0.554941 20 0.834108 20C0.984108 20 1.13494 19.96 1.27161 19.875L9.45994 14.8058L12.3266 17.6725C12.6524 17.9983 13.1791 17.9983 13.5049 17.6725L17.4999 13.6783L18.5774 14.7558C18.7366 14.915 18.9499 15 19.1666 15C19.2741 15 19.3824 14.9792 19.4858 14.9367C19.7974 14.8075 19.9999 14.5033 19.9999 14.1667V10.8333C19.9999 10.3733 19.6274 10 19.1666 10Z" fill="#FEFFFF"/>
</svg>
