<svg width="20" height="20" viewBox="0 0 20 20" fill="none" xmlns="http://www.w3.org/2000/svg">
<path d="M4.83332 5.08318C4.16664 4.4165 1.33332 4.24986 0.416641 4.1665C0.33332 4.1665 0.249961 4.1665 0.166641 4.24982C0.0833203 4.33318 0 4.49986 0 4.58318V12.0832C0 12.3332 0.16668 12.4999 0.41668 12.4999H2.91668C3.08336 12.4999 3.25 12.4166 3.33336 12.2499C3.33336 11.9999 4.83336 7.58319 5.00004 5.41654C5 5.33318 5 5.16654 4.83332 5.08318Z" fill="#FEFFFF"/>
<path d="M13.75 7.08341C12.9167 6.83341 12.1667 6.50008 11.5 6.25008C10 5.5834 9.33337 5.91676 8.00005 7.25009C7.41673 7.83341 7.00005 8.66677 7.08337 9.00009C7.08337 9.08341 7.08337 9.08341 7.25005 9.16677C7.66673 9.33345 8.25005 9.41677 8.83337 8.50009C8.91669 8.41677 9.00005 8.33341 9.16669 8.33341C9.41669 8.33341 9.50001 8.25009 9.75001 8.16673C9.91669 8.08341 10.0833 8.00005 10.3333 7.91673C10.4167 7.91673 10.4167 7.91673 10.5 7.91673C10.5833 7.91673 10.75 8.00005 10.8333 8.00005C11.25 8.41677 12 9.00009 12.75 9.66677C13.9167 10.5834 15.0834 11.5835 15.6667 12.3335H15.75C15.1667 10.6668 14.1667 7.83341 13.75 7.08341Z" fill="#FEFFFF"/>
<path d="M19.5834 5C16.3334 5 14.5001 5.83332 14.4167 5.83332C14.3334 5.91664 14.2501 6 14.1667 6.08332C14.1667 6.16664 14.1667 6.33332 14.2501 6.41664C14.7501 7.24996 16.4168 11.8333 16.6668 13C16.7501 13.1666 16.9168 13.3333 17.0834 13.3333H19.5834C19.8334 13.3333 20.0001 13.1666 20.0001 12.9166V5.4166C20.0001 5.16668 19.8334 5 19.5834 5Z" fill="#FEFFFF"/>
<path d="M15.0832 13.1665C14.7499 12.4165 13.3332 11.3332 12.0832 10.3332C11.4166 9.74983 10.7499 9.24983 10.2499 8.83315C10.1666 8.91647 9.99989 8.91647 9.99989 8.99983C9.74989 9.08315 9.66657 9.16651 9.33321 9.16651C8.66657 9.99983 7.83321 10.3331 6.91657 9.99983C6.49989 9.91651 6.24989 9.58315 6.16657 9.24983C5.99989 8.41651 6.74989 7.24982 7.33325 6.6665H5.66657C5.33325 8.33319 4.74989 10.4998 4.33325 11.6665C4.66657 11.9998 4.99993 12.4165 5.24993 12.5832C6.83325 13.9165 8.66661 15.2499 8.99993 15.4999C9.24993 15.6666 9.74993 15.8332 9.99993 15.8332C10.0833 15.8332 10.1666 15.8332 10.2499 15.8332L8.91657 14.4998C8.74989 14.3332 8.74989 14.0832 8.91657 13.9165C9.08325 13.7499 9.33325 13.7498 9.49989 13.9165L11.1666 15.5832C11.3333 15.7499 11.4999 15.6665 11.6666 15.6665C11.9166 15.5832 11.9999 15.4165 12.0833 15.1665L10.1666 13.2498C9.99989 13.0832 9.99989 12.8331 10.1666 12.6665C10.3333 12.4999 10.5833 12.4998 10.7499 12.6665L12.8332 14.7498C12.9165 14.8332 13.2499 14.8332 13.4999 14.7498C13.5832 14.6665 13.7499 14.5832 13.8332 14.4165L11.4999 12.0831C11.3332 11.9165 11.3332 11.6665 11.4999 11.4998C11.6666 11.3332 11.9166 11.3331 12.0832 11.4998L14.4999 13.9165C14.6666 13.9998 14.8332 13.9165 14.9999 13.8332C15.0832 13.7498 15.2499 13.4998 15.0832 13.1665Z" fill="#FEFFFF"/>
</svg>
