<svg width="24" height="25" viewBox="0 0 24 25" fill="none" xmlns="http://www.w3.org/2000/svg">
<path d="M1.5 12.5C1.5 14.5767 2.11581 16.6068 3.26957 18.3335C4.42332 20.0602 6.0632 21.406 7.98182 22.2007C9.90045 22.9955 12.0116 23.2034 14.0484 22.7982C16.0852 22.3931 17.9562 21.3931 19.4246 19.9246C20.8931 18.4562 21.8931 16.5852 22.2982 14.5484C22.7034 12.5116 22.4955 10.4004 21.7007 8.48182C20.906 6.56319 19.5602 4.92332 17.8335 3.76956C16.1068 2.61581 14.0767 2 12 2C9.21523 2 6.54451 3.10624 4.57538 5.07537C2.60625 7.04451 1.5 9.71522 1.5 12.5ZM21 12.5C21 14.28 20.4722 16.0201 19.4832 17.5001C18.4943 18.9802 17.0887 20.1337 15.4442 20.8149C13.7996 21.4961 11.99 21.6743 10.2442 21.3271C8.49836 20.9798 6.89471 20.1226 5.63604 18.864C4.37737 17.6053 3.5202 16.0016 3.17293 14.2558C2.82567 12.51 3.0039 10.7004 3.68508 9.05585C4.36627 7.41131 5.51983 6.0057 6.99987 5.01677C8.47991 4.02784 10.22 3.5 12 3.5C14.3869 3.5 16.6761 4.44821 18.364 6.13604C20.0518 7.82386 21 10.113 21 12.5Z" fill="#C9C9C9"/>
</svg>
