<svg width="81" height="82" viewBox="0 0 81 82" fill="none" xmlns="http://www.w3.org/2000/svg">
<g clip-path="url(#clip0)">
<g filter="url(#filter0_d)">
<path d="M38.25 3.15717C25.1423 3.95804 17.6527 10.861 15.8735 23.305C15.5517 25.5563 17.3952 27.4572 19.6694 27.4572H26.2202C28.3918 27.4572 30.0714 25.6701 30.8201 23.6317C32.0005 20.4177 34.6431 18.1768 38.5 17.7119C43.75 17.2056 48.75 18.4712 50.25 22.015C51.875 25.9384 48.25 30.4947 46.5 32.3931C43.25 35.9369 38 38.5947 35.25 42.3915C33.2524 45.2809 32.4854 48.8298 32.1227 53.0384C31.9275 55.3036 33.7693 57.1994 36.043 57.1994H40.8754C43.035 57.1994 44.7566 55.4804 44.9742 53.3318C45.2174 50.9305 45.7189 48.7895 46.875 47.2009C49.75 43.2775 54 41.5056 57.5 38.3415C60.875 35.4306 64.5 31.8869 65 26.3181C67.125 9.99154 53.875 2.14467 38.25 3.15717Z" fill="url(#paint0_linear)"/>
</g>
<g filter="url(#filter1_d)">
<path d="M38.625 78.9686C43.1123 78.9686 46.75 75.3421 46.75 70.8686C46.75 66.395 43.1123 62.7686 38.625 62.7686C34.1377 62.7686 30.5 66.395 30.5 70.8686C30.5 75.3421 34.1377 78.9686 38.625 78.9686Z" fill="url(#paint1_linear)"/>
</g>
</g>
<defs>
<filter id="filter0_d" x="12.8369" y="0.0703125" width="57.3878" height="62.129" filterUnits="userSpaceOnUse" color-interpolation-filters="sRGB">
<feFlood flood-opacity="0" result="BackgroundImageFix"/>
<feColorMatrix in="SourceAlpha" type="matrix" values="0 0 0 0 0 0 0 0 0 0 0 0 0 0 0 0 0 0 127 0" result="hardAlpha"/>
<feOffset dx="1" dy="1"/>
<feGaussianBlur stdDeviation="2"/>
<feColorMatrix type="matrix" values="0 0 0 0 0 0 0 0 0 0 0 0 0 0 0 0 0 0 0.15 0"/>
<feBlend mode="normal" in2="BackgroundImageFix" result="effect1_dropShadow"/>
<feBlend mode="normal" in="SourceGraphic" in2="effect1_dropShadow" result="shape"/>
</filter>
<filter id="filter1_d" x="27.5" y="59.7686" width="24.25" height="24.2" filterUnits="userSpaceOnUse" color-interpolation-filters="sRGB">
<feFlood flood-opacity="0" result="BackgroundImageFix"/>
<feColorMatrix in="SourceAlpha" type="matrix" values="0 0 0 0 0 0 0 0 0 0 0 0 0 0 0 0 0 0 127 0" result="hardAlpha"/>
<feOffset dx="1" dy="1"/>
<feGaussianBlur stdDeviation="2"/>
<feColorMatrix type="matrix" values="0 0 0 0 0 0 0 0 0 0 0 0 0 0 0 0 0 0 0.15 0"/>
<feBlend mode="normal" in2="BackgroundImageFix" result="effect1_dropShadow"/>
<feBlend mode="normal" in="SourceGraphic" in2="effect1_dropShadow" result="shape"/>
</filter>
<linearGradient id="paint0_linear" x1="31.6605" y1="3.07031" x2="54.6435" y2="55.8526" gradientUnits="userSpaceOnUse">
<stop stop-color="#DAB451"/>
<stop offset="1" stop-color="#988050"/>
</linearGradient>
<linearGradient id="paint1_linear" x1="35.7812" y1="62.7686" x2="42.2468" y2="78.9823" gradientUnits="userSpaceOnUse">
<stop stop-color="#DAB451"/>
<stop offset="1" stop-color="#988050"/>
</linearGradient>
<clipPath id="clip0">
<rect x="0.5" y="0.5" width="80" height="81" fill="white"/>
</clipPath>
</defs>
</svg>
