<svg width="24" height="25" viewBox="0 0 24 25" fill="none" xmlns="http://www.w3.org/2000/svg">
<path d="M11.9978 21.9957C17.2363 21.9957 21.483 17.749 21.483 12.5105C21.483 7.27204 17.2363 3.02539 11.9978 3.02539C6.75934 3.02539 2.5127 7.27204 2.5127 12.5105C2.5127 17.749 6.75934 21.9957 11.9978 21.9957Z" fill="url(#paint0_linear)"/>
<path d="M11.9976 20.9942C16.6839 20.9942 20.4829 17.1951 20.4829 12.5088C20.4829 7.82246 16.6839 4.02344 11.9976 4.02344C7.31123 4.02344 3.51221 7.82246 3.51221 12.5088C3.51221 17.1951 7.31123 20.9942 11.9976 20.9942Z" fill="url(#paint1_linear)"/>
<path d="M11.9978 3.02539C6.76819 3.02539 2.5127 7.28089 2.5127 12.5105C2.5127 17.7402 6.76819 21.9957 11.9978 21.9957C17.2275 21.9957 21.483 17.7402 21.483 12.5105C21.4574 7.28089 17.2275 3.02539 11.9978 3.02539ZM11.9978 21.8419C6.8451 21.8419 2.64087 17.6633 2.64087 12.5105C2.64087 7.3578 6.8451 3.15357 11.9978 3.15357C17.1506 3.15357 21.3548 7.3578 21.3548 12.5105C21.3292 17.6633 17.1506 21.8419 11.9978 21.8419Z" fill="url(#paint2_linear)"/>
<path d="M11.9976 3.81836C7.20373 3.81836 3.30713 7.71496 3.30713 12.5088C3.30713 17.3026 7.20373 21.1992 11.9976 21.1992C16.7914 21.1992 20.688 17.3026 20.688 12.5088C20.688 7.71496 16.7914 3.81836 11.9976 3.81836ZM11.9976 20.9942C7.30627 20.9942 3.51221 17.1745 3.51221 12.5088C3.51221 7.84314 7.30627 3.99781 11.9976 3.99781C16.6889 3.99781 20.4829 7.8175 20.4829 12.4832C20.4829 17.1488 16.6632 20.9942 11.9976 20.9942Z" fill="url(#paint3_linear)"/>
<g opacity="0.7">
<path opacity="0.7" d="M11.9976 20.9942C16.6839 20.9942 20.4829 17.1951 20.4829 12.5088C20.4829 7.82246 16.6839 4.02344 11.9976 4.02344C7.31123 4.02344 3.51221 7.82246 3.51221 12.5088C3.51221 17.1951 7.31123 20.9942 11.9976 20.9942Z" fill="#D8B141"/>
<path opacity="0.7" d="M18 18.5C21.3137 15.1863 21.3137 9.81371 18 6.5C14.6863 3.18629 9.31371 3.18629 6 6.5C2.68629 9.81371 2.68629 15.1863 6 18.5C9.31371 21.8137 14.6863 21.8137 18 18.5Z" fill="#D8B141"/>
<path opacity="0.7" d="M11.9978 20.9702C16.67 20.9702 20.4575 17.1827 20.4575 12.5105C20.4575 7.83833 16.67 4.05078 11.9978 4.05078C7.32563 4.05078 3.53809 7.83833 3.53809 12.5105C3.53809 17.1827 7.32563 20.9702 11.9978 20.9702Z" fill="#D8B141"/>
<path opacity="0.7" d="M11.9978 20.9702C16.67 20.9702 20.4575 17.1827 20.4575 12.5105C20.4575 7.83833 16.67 4.05078 11.9978 4.05078C7.32563 4.05078 3.53809 7.83833 3.53809 12.5105C3.53809 17.1827 7.32563 20.9702 11.9978 20.9702Z" fill="#D8B141"/>
<path opacity="0.7" d="M11.9978 20.9702C16.67 20.9702 20.4575 17.1827 20.4575 12.5105C20.4575 7.83833 16.67 4.05078 11.9978 4.05078C7.32563 4.05078 3.53809 7.83833 3.53809 12.5105C3.53809 17.1827 7.32563 20.9702 11.9978 20.9702Z" fill="#D8B141"/>
<path opacity="0.7" d="M17.9635 18.4637C21.2572 15.1701 21.2572 9.82994 17.9635 6.53625C14.6698 3.24257 9.3297 3.24257 6.03601 6.53625C2.74233 9.82994 2.74233 15.1701 6.03601 18.4637C9.3297 21.7574 14.6698 21.7574 17.9635 18.4637Z" fill="#D8B141"/>
<path opacity="0.7" d="M11.9981 20.9424C16.6561 20.9424 20.4321 17.1663 20.4321 12.5083C20.4321 7.85029 16.6561 4.07422 11.9981 4.07422C7.34004 4.07422 3.56396 7.85029 3.56396 12.5083C3.56396 17.1663 7.34004 20.9424 11.9981 20.9424Z" fill="#C18911"/>
<path opacity="0.7" d="M11.9978 20.9185C16.6417 20.9185 20.4063 17.1539 20.4063 12.51C20.4063 7.86616 16.6417 4.10156 11.9978 4.10156C7.35395 4.10156 3.58936 7.86616 3.58936 12.51C3.58936 17.1539 7.35395 20.9185 11.9978 20.9185Z" fill="#B87F13"/>
<path opacity="0.7" d="M20.3958 12.8616C20.6002 8.2224 17.005 4.29588 12.3658 4.09148C7.7266 3.88708 3.80008 7.48222 3.59568 12.1214C3.39128 16.7607 6.98642 20.6872 11.6256 20.8916C16.2649 21.096 20.1914 17.5008 20.3958 12.8616Z" fill="#C69626"/>
<path opacity="0.7" d="M17.9275 18.4275C21.2012 15.1538 21.2012 9.84617 17.9275 6.57251C14.6538 3.29885 9.34617 3.29885 6.07251 6.57251C2.79885 9.84617 2.79885 15.1538 6.07251 18.4275C9.34617 21.7012 14.6538 21.7012 17.9275 18.4275Z" fill="#707070"/>
<path opacity="0.7" d="M11.9976 20.8926C16.6273 20.8926 20.3804 17.1395 20.3804 12.5098C20.3804 7.88007 16.6273 4.12695 11.9976 4.12695C7.36786 4.12695 3.61475 7.88007 3.61475 12.5098C3.61475 17.1395 7.36786 20.8926 11.9976 20.8926Z" fill="#737373"/>
<path opacity="0.7" d="M11.9976 20.8926C16.6273 20.8926 20.3804 17.1395 20.3804 12.5098C20.3804 7.88007 16.6273 4.12695 11.9976 4.12695C7.36786 4.12695 3.61475 7.88007 3.61475 12.5098C3.61475 17.1395 7.36786 20.8926 11.9976 20.8926Z" fill="#777777"/>
<path opacity="0.7" d="M11.9978 20.8667C16.6134 20.8667 20.355 17.1251 20.355 12.5095C20.355 7.89398 16.6134 4.15234 11.9978 4.15234C7.38226 4.15234 3.64062 7.89398 3.64062 12.5095C3.64062 17.1251 7.38226 20.8667 11.9978 20.8667Z" fill="#7A7A7A"/>
<path opacity="0.7" d="M17.9097 18.4094C21.1734 15.1457 21.1734 9.85429 17.9097 6.59063C14.6461 3.32698 9.35466 3.32698 6.09101 6.59063C2.82735 9.85429 2.82735 15.1457 6.09101 18.4094C9.35466 21.673 14.6461 21.673 17.9097 18.4094Z" fill="#7D7D7D"/>
<path opacity="0.7" d="M11.9976 20.8428C16.599 20.8428 20.3291 17.1126 20.3291 12.5112C20.3291 7.90985 16.599 4.17969 11.9976 4.17969C7.39618 4.17969 3.66602 7.90985 3.66602 12.5112C3.66602 17.1126 7.39618 20.8428 11.9976 20.8428Z" fill="#818181"/>
<path opacity="0.7" d="M11.9976 20.8428C16.599 20.8428 20.3291 17.1126 20.3291 12.5112C20.3291 7.90985 16.599 4.17969 11.9976 4.17969C7.39618 4.17969 3.66602 7.90985 3.66602 12.5112C3.66602 17.1126 7.39618 20.8428 11.9976 20.8428Z" fill="#848484"/>
<path opacity="0.7" d="M20.2932 12.8571C20.495 8.27449 16.9437 4.39591 12.361 4.19407C7.7784 3.99223 3.89982 7.54358 3.69798 12.1262C3.49614 16.7089 7.04749 20.5874 11.6301 20.7893C16.2128 20.9911 20.0914 17.4398 20.2932 12.8571Z" fill="#888888"/>
<path opacity="0.7" d="M12.1301 20.8139C16.7169 20.7408 20.376 16.9633 20.303 12.3765C20.2299 7.78976 16.4524 4.13066 11.8656 4.20369C7.27886 4.27673 3.61976 8.05425 3.69279 12.641C3.76583 17.2278 7.54335 20.8869 12.1301 20.8139Z" fill="#8B8B8B"/>
<path opacity="0.7" d="M11.9976 20.7891C16.5706 20.7891 20.2778 17.0819 20.2778 12.5088C20.2778 7.93572 16.5706 4.22852 11.9976 4.22852C7.42449 4.22852 3.71729 7.93572 3.71729 12.5088C3.71729 17.0819 7.42449 20.7891 11.9976 20.7891Z" fill="#8E8E8E"/>
<path opacity="0.7" d="M11.9976 20.7891C16.5706 20.7891 20.2778 17.0819 20.2778 12.5088C20.2778 7.93572 16.5706 4.22852 11.9976 4.22852C7.42449 4.22852 3.71729 7.93572 3.71729 12.5088C3.71729 17.0819 7.42449 20.7891 11.9976 20.7891Z" fill="#929292"/>
<path opacity="0.7" d="M17.855 18.355C21.0886 15.1214 21.0886 9.87863 17.855 6.64502C14.6214 3.4114 9.37864 3.4114 6.14502 6.64502C2.9114 9.87863 2.91141 15.1214 6.14502 18.355C9.37864 21.5886 14.6214 21.5886 17.855 18.355Z" fill="#959595"/>
<path opacity="0.7" d="M12.1295 20.7629C16.6879 20.6903 20.3245 16.9361 20.2519 12.3777C20.1793 7.8192 16.4251 4.18269 11.8666 4.25528C7.30815 4.32787 3.67164 8.08208 3.74423 12.6405C3.81682 17.199 7.57103 20.8355 12.1295 20.7629Z" fill="#999999"/>
<path opacity="0.7" d="M11.9973 20.7632C16.5562 20.7632 20.252 17.0675 20.252 12.5085C20.252 7.94964 16.5562 4.25391 11.9973 4.25391C7.43841 4.25391 3.74268 7.94964 3.74268 12.5085C3.74268 17.0675 7.43841 20.7632 11.9973 20.7632Z" fill="#9C9C9C"/>
<path opacity="0.7" d="M11.9976 20.7393C16.5423 20.7393 20.2266 17.055 20.2266 12.5103C20.2266 7.9655 16.5423 4.28125 11.9976 4.28125C7.45281 4.28125 3.76855 7.9655 3.76855 12.5103C3.76855 17.055 7.45281 20.7393 11.9976 20.7393Z" fill="#9F9F9F"/>
<path opacity="0.7" d="M17.8185 18.3187C21.0321 15.1051 21.0321 9.89487 17.8185 6.68127C14.6049 3.46767 9.39463 3.46767 6.18104 6.68127C2.96744 9.89487 2.96744 15.1051 6.18104 18.3187C9.39463 21.5323 14.6049 21.5323 17.8185 18.3187Z" fill="#A3A3A3"/>
<path opacity="0.7" d="M12.1288 20.712C16.659 20.6398 20.2729 16.9089 20.2008 12.3788C20.1286 7.84865 16.3977 4.23473 11.8676 4.30687C7.33745 4.37902 3.72352 8.10991 3.79567 12.64C3.86781 17.1702 7.5987 20.7841 12.1288 20.712Z" fill="#A6A6A6"/>
<path opacity="0.7" d="M11.9978 20.7134C16.5284 20.7134 20.2012 17.0406 20.2012 12.51C20.2012 7.97941 16.5284 4.30664 11.9978 4.30664C7.46721 4.30664 3.79443 7.97941 3.79443 12.51C3.79443 17.0406 7.46721 20.7134 11.9978 20.7134Z" fill="#AAAAAA"/>
<path opacity="0.7" d="M11.9978 20.7134C16.5284 20.7134 20.2012 17.0406 20.2012 12.51C20.2012 7.97941 16.5284 4.30664 11.9978 4.30664C7.46721 4.30664 3.79443 7.97941 3.79443 12.51C3.79443 17.0406 7.46721 20.7134 11.9978 20.7134Z" fill="#ADADAD"/>
<path opacity="0.7" d="M17.7825 18.2825C20.9761 15.0889 20.9761 9.9111 17.7825 6.71752C14.5889 3.52395 9.41111 3.52395 6.21754 6.71752C3.02396 9.9111 3.02396 15.0889 6.21754 18.2825C9.41111 21.4761 14.5889 21.4761 17.7825 18.2825Z" fill="#B1B1B1"/>
<path opacity="0.7" d="M11.9976 20.6856C16.514 20.6856 20.1753 17.0243 20.1753 12.5078C20.1753 7.99138 16.514 4.33008 11.9976 4.33008C7.48112 4.33008 3.81982 7.99138 3.81982 12.5078C3.81982 17.0243 7.48112 20.6856 11.9976 20.6856Z" fill="#B4B4B4"/>
<path opacity="0.7" d="M11.9978 20.6616C16.5001 20.6616 20.1499 17.0118 20.1499 12.5095C20.1499 8.00724 16.5001 4.35742 11.9978 4.35742C7.49552 4.35742 3.8457 8.00724 3.8457 12.5095C3.8457 17.0118 7.49552 20.6616 11.9978 20.6616Z" fill="#B7B7B7"/>
<path opacity="0.7" d="M20.1395 12.8503C20.3375 8.35256 16.8518 4.54589 12.3541 4.34792C7.85627 4.14994 4.04961 7.63562 3.85163 12.1334C3.65366 16.6312 7.13934 20.4378 11.6371 20.6358C16.1349 20.8338 19.9416 17.3481 20.1395 12.8503Z" fill="#BBBBBB"/>
<path opacity="0.7" d="M17.746 18.2462C20.9195 15.0727 20.9195 9.92733 17.746 6.75378C14.5724 3.58023 9.4271 3.58023 6.25355 6.75378C3.08 9.92733 3.08 15.0727 6.25355 18.2462C9.4271 21.4198 14.5724 21.4198 17.746 18.2462Z" fill="#BEBEBE"/>
<path opacity="0.7" d="M11.9976 20.6357C16.4857 20.6357 20.124 16.9974 20.124 12.5093C20.124 8.02115 16.4857 4.38281 11.9976 4.38281C7.50944 4.38281 3.87109 8.02115 3.87109 12.5093C3.87109 16.9974 7.50944 20.6357 11.9976 20.6357Z" fill="#C2C2C2"/>
<path opacity="0.7" d="M11.9978 20.6099C16.4718 20.6099 20.0986 16.983 20.0986 12.509C20.0986 8.03507 16.4718 4.4082 11.9978 4.4082C7.52384 4.4082 3.89697 8.03507 3.89697 12.509C3.89697 16.983 7.52384 20.6099 11.9978 20.6099Z" fill="#C5C5C5"/>
<path opacity="0.7" d="M20.0885 12.8481C20.2852 8.37861 16.8214 4.59591 12.3519 4.39921C7.88242 4.20251 4.09973 7.66629 3.90303 12.1358C3.70633 16.6053 7.17011 20.388 11.6396 20.5847C16.1091 20.7814 19.8918 17.3176 20.0885 12.8481Z" fill="#C8C8C8"/>
<path opacity="0.7" d="M17.7282 18.2281C20.8918 15.0646 20.8918 9.93544 17.7282 6.7719C14.5647 3.60836 9.43558 3.60836 6.27204 6.7719C3.1085 9.93544 3.1085 15.0646 6.27204 18.2281C9.43558 21.3916 14.5647 21.3916 17.7282 18.2281Z" fill="#CCCCCC"/>
<path opacity="0.7" d="M11.998 20.5859C16.4579 20.5859 20.0732 16.9705 20.0732 12.5107C20.0732 8.05093 16.4579 4.43555 11.998 4.43555C7.53824 4.43555 3.92285 8.05093 3.92285 12.5107C3.92285 16.9705 7.53824 20.5859 11.998 20.5859Z" fill="#CFCFCF"/>
<path opacity="0.7" d="M11.998 20.5859C16.4579 20.5859 20.0732 16.9705 20.0732 12.5107C20.0732 8.05093 16.4579 4.43555 11.998 4.43555C7.53824 4.43555 3.92285 8.05093 3.92285 12.5107C3.92285 16.9705 7.53824 20.5859 11.998 20.5859Z" fill="#D3D3D3"/>
<path opacity="0.7" d="M20.037 12.8459C20.2324 8.40467 16.7905 4.64594 12.3493 4.45052C7.90809 4.2551 4.14936 7.69698 3.95394 12.1382C3.75852 16.5794 7.2004 20.3381 11.6416 20.5335C16.0828 20.729 19.8415 17.2871 20.037 12.8459Z" fill="#D6D6D6"/>
<path opacity="0.7" d="M17.6917 18.1918C20.8353 15.0483 20.8353 9.95167 17.6917 6.80816C14.5482 3.66464 9.45157 3.66464 6.30805 6.80816C3.16454 9.95168 3.16454 15.0483 6.30805 18.1918C9.45157 21.3354 14.5482 21.3354 17.6917 18.1918Z" fill="#D9D9D9"/>
<path opacity="0.7" d="M11.998 20.5342C16.4295 20.5342 20.022 16.9417 20.022 12.5103C20.022 8.07876 16.4295 4.48633 11.998 4.48633C7.56655 4.48633 3.97412 8.07876 3.97412 12.5103C3.97412 16.9417 7.56655 20.5342 11.998 20.5342Z" fill="#DDDDDD"/>
<path opacity="0.7" d="M11.998 20.5342C16.4295 20.5342 20.022 16.9417 20.022 12.5103C20.022 8.07876 16.4295 4.48633 11.998 4.48633C7.56655 4.48633 3.97412 8.07876 3.97412 12.5103C3.97412 16.9417 7.56655 20.5342 11.998 20.5342Z" fill="#E0E0E0"/>
<path opacity="0.7" d="M20.0114 12.8457C20.2062 8.41861 16.7752 4.67188 12.3482 4.47711C7.92111 4.28235 4.17438 7.7133 3.97961 12.1404C3.78484 16.5674 7.21579 20.3141 11.6429 20.5089C16.0699 20.7037 19.8166 17.2727 20.0114 12.8457Z" fill="#E4E4E4"/>
<path opacity="0.7" d="M12.1253 20.5082C16.5422 20.4378 20.0658 16.8002 19.9954 12.3833C19.9251 7.96642 16.2874 4.44287 11.8705 4.51323C7.45364 4.58359 3.93009 8.22122 4.00045 12.6381C4.07081 17.055 7.70844 20.5786 12.1253 20.5082Z" fill="#E7E7E7"/>
<path opacity="0.7" d="M11.9978 20.5083C16.4151 20.5083 19.9961 16.9273 19.9961 12.51C19.9961 8.09267 16.4151 4.51172 11.9978 4.51172C7.58047 4.51172 3.99951 8.09267 3.99951 12.51C3.99951 16.9273 7.58047 20.5083 11.9978 20.5083Z" fill="#EBEBEB"/>
<path opacity="0.7" d="M11.9976 20.4824C16.4007 20.4824 19.9702 16.9129 19.9702 12.5098C19.9702 8.10659 16.4007 4.53711 11.9976 4.53711C7.59438 4.53711 4.0249 8.10659 4.0249 12.5098C4.0249 16.9129 7.59438 20.4824 11.9976 20.4824Z" fill="#EEEEEE"/>
<path opacity="0.7" d="M19.9604 12.8454C20.1539 8.44662 16.7448 4.72386 12.346 4.53037C7.94727 4.33687 4.2245 7.74593 4.03101 12.1447C3.83752 16.5435 7.24657 20.2662 11.6453 20.4597C16.0441 20.6532 19.7669 17.2442 19.9604 12.8454Z" fill="#F1F1F1"/>
<path opacity="0.7" d="M12.1247 20.4553C16.5133 20.3854 20.0142 16.7711 19.9443 12.3825C19.8744 7.99392 16.2601 4.49295 11.8715 4.56286C7.48294 4.63278 3.98197 8.2471 4.05188 12.6357C4.1218 17.0242 7.73612 20.5252 12.1247 20.4553Z" fill="#F5F5F5"/>
<path opacity="0.7" d="M11.9978 20.4565C16.3868 20.4565 19.9448 16.8985 19.9448 12.5095C19.9448 8.1205 16.3868 4.5625 11.9978 4.5625C7.60878 4.5625 4.05078 8.1205 4.05078 12.5095C4.05078 16.8985 7.60878 20.4565 11.9978 20.4565Z" fill="#F8F8F8"/>
<path opacity="0.7" d="M11.9976 20.4307C16.3724 20.4307 19.9189 16.8841 19.9189 12.5093C19.9189 8.13441 16.3724 4.58789 11.9976 4.58789C7.62269 4.58789 4.07617 8.13441 4.07617 12.5093C4.07617 16.8841 7.62269 20.4307 11.9976 20.4307Z" fill="#FCFCFC"/>
<path opacity="0.7" d="M17.6015 18.1012C20.6949 15.0077 20.6949 9.99225 17.6015 6.89879C14.508 3.80533 9.49252 3.80533 6.39906 6.89879C3.3056 9.99225 3.3056 15.0077 6.39906 18.1012C9.49252 21.1947 14.508 21.1947 17.6015 18.1012Z" fill="#FFF58B"/>
</g>
<defs>
<linearGradient id="paint0_linear" x1="2.5127" y1="13.6905" x2="21.4835" y2="14.093" gradientUnits="userSpaceOnUse">
<stop offset="0.00561798" stop-color="#B87F13"/>
<stop offset="0.1114" stop-color="#BF8714"/>
<stop offset="0.2188" stop-color="#D4A014"/>
<stop offset="0.2707" stop-color="#E3B119"/>
<stop offset="0.5449" stop-color="#FAEE80"/>
<stop offset="0.7247" stop-color="#E8B541"/>
<stop offset="0.7639" stop-color="#E6B937"/>
<stop offset="0.8181" stop-color="#EEB634"/>
<stop offset="0.8811" stop-color="#EEC43E"/>
<stop offset="0.9502" stop-color="#BF881A"/>
<stop offset="1" stop-color="#B5790E"/>
</linearGradient>
<linearGradient id="paint1_linear" x1="3.51221" y1="13.5644" x2="20.4621" y2="5.29986" gradientUnits="userSpaceOnUse">
<stop offset="0.00561798" stop-color="#B87F13"/>
<stop offset="0.1114" stop-color="#BF8714"/>
<stop offset="0.2188" stop-color="#D4A014"/>
<stop offset="0.2707" stop-color="#E3B119"/>
<stop offset="0.563448" stop-color="#FAEE80"/>
<stop offset="0.7247" stop-color="#E8B541"/>
<stop offset="0.7639" stop-color="#E6B937"/>
<stop offset="0.8181" stop-color="#EEB634"/>
<stop offset="0.8811" stop-color="#EEC43E"/>
<stop offset="0.9502" stop-color="#BF881A"/>
<stop offset="1" stop-color="#B5790E"/>
</linearGradient>
<linearGradient id="paint2_linear" x1="5.28877" y1="5.80351" x2="18.6879" y2="19.2027" gradientUnits="userSpaceOnUse">
<stop offset="0.00561798" stop-color="#B87F13"/>
<stop offset="0.1114" stop-color="#BF8714"/>
<stop offset="0.2188" stop-color="#D4A014"/>
<stop offset="0.2707" stop-color="#E3B119"/>
<stop offset="0.5449" stop-color="#FAEE80"/>
<stop offset="0.7247" stop-color="#E8B541"/>
<stop offset="0.7639" stop-color="#E6B937"/>
<stop offset="0.8181" stop-color="#EEB634"/>
<stop offset="0.8811" stop-color="#EEC43E"/>
<stop offset="0.9502" stop-color="#BF881A"/>
<stop offset="1" stop-color="#B5790E"/>
</linearGradient>
<linearGradient id="paint3_linear" x1="5.99607" y1="4.64578" x2="17.5483" y2="21.1983" gradientUnits="userSpaceOnUse">
<stop offset="0.00561798" stop-color="#B87F13"/>
<stop offset="0.1114" stop-color="#BF8714"/>
<stop offset="0.2188" stop-color="#D4A014"/>
<stop offset="0.2707" stop-color="#E3B119"/>
<stop offset="0.5449" stop-color="#FAEE80"/>
<stop offset="0.7247" stop-color="#E8B541"/>
<stop offset="0.7639" stop-color="#E6B937"/>
<stop offset="0.8181" stop-color="#EEB634"/>
<stop offset="0.8811" stop-color="#EEC43E"/>
<stop offset="0.9502" stop-color="#BF881A"/>
<stop offset="1" stop-color="#B5790E"/>
</linearGradient>
</defs>
</svg>
