<svg width="22" height="24" viewBox="0 0 22 24" fill="none" xmlns="http://www.w3.org/2000/svg">
<path d="M19.9372 1.74836C17.6061 -0.582785 13.8134 -0.582785 11.4823 1.74836L2.58023 10.6504C2.30549 10.9251 2.30549 11.3702 2.58023 11.6449C2.85496 11.9197 3.30004 11.9197 3.57477 11.6449L12.4768 2.7429C14.2049 1.01621 17.2146 1.01621 18.9426 2.7429C20.725 4.52523 20.725 7.42576 18.9426 9.20809L6.51215 21.7786C5.44893 22.8418 3.59652 22.8418 2.53335 21.7786C1.43648 20.6817 1.43648 18.8973 2.53335 17.8004L14.4666 5.7265C14.8649 5.32815 15.56 5.32815 15.9584 5.7265C16.3698 6.13787 16.3698 6.80757 15.9584 7.219L4.5231 18.7949C4.28591 19.0321 4.28591 19.5522 4.5231 19.7895C4.79784 20.0642 5.24291 20.0642 5.51765 19.7895L16.9529 8.2135C17.9131 7.25326 17.9131 5.69214 16.9529 4.73195C16.0229 3.802 14.4006 3.80336 13.4721 4.73195L1.5388 16.8058C-0.0936641 18.4383 -0.0936641 21.1405 1.5388 22.7731C2.33624 23.5705 3.39599 24 4.52305 24C5.65012 24 6.70996 23.5705 7.50669 22.7731L19.9372 10.2026C22.2683 7.87145 22.2683 4.07945 19.9372 1.74836Z" fill="#FEFFFF"/>
</svg>
