<svg width="18" height="20" viewBox="0 0 18 20" fill="none" xmlns="http://www.w3.org/2000/svg">
<path d="M15.0415 0H2.95817C1.694 0 0.666504 1.0275 0.666504 2.29167V17.7083C0.666504 18.9725 1.694 20 2.95817 20H15.0415C16.3057 20 17.3332 18.9725 17.3332 17.7083V2.29167C17.3332 1.0275 16.3057 0 15.0415 0ZM7.95817 10.8333V6.73C9.95817 7.03417 11.4998 8.75 11.4998 10.8333C11.4998 13.1308 9.63067 15 7.33317 15C6.40984 15 5.564 14.6883 4.87234 14.1775L7.77484 11.275C7.89234 11.1583 7.95817 10.9992 7.95817 10.8333ZM6.70817 6.73V10.575L3.989 13.2942C3.47817 12.6025 3.1665 11.7567 3.1665 10.8333C3.1665 8.75 4.70817 7.03417 6.70817 6.73ZM14.2082 17.7083H3.7915C3.4465 17.7083 3.1665 17.4283 3.1665 17.0833C3.1665 16.7383 3.4465 16.4583 3.7915 16.4583H14.2082C14.5532 16.4583 14.8332 16.7383 14.8332 17.0833C14.8332 17.4283 14.5532 17.7083 14.2082 17.7083ZM14.2082 15H12.9582C12.6132 15 12.3332 14.72 12.3332 14.375C12.3332 14.03 12.6132 13.75 12.9582 13.75H14.2082C14.5532 13.75 14.8332 14.03 14.8332 14.375C14.8332 14.72 14.5532 15 14.2082 15ZM14.2082 12.7083H12.9582C12.6132 12.7083 12.3332 12.4283 12.3332 12.0833C12.3332 11.7383 12.6132 11.4583 12.9582 11.4583H14.2082C14.5532 11.4583 14.8332 11.7383 14.8332 12.0833C14.8332 12.4283 14.5532 12.7083 14.2082 12.7083ZM14.2082 10.2083H12.9582C12.6132 10.2083 12.3332 9.92833 12.3332 9.58333C12.3332 9.23833 12.6132 8.95833 12.9582 8.95833H14.2082C14.5532 8.95833 14.8332 9.23833 14.8332 9.58333C14.8332 9.92833 14.5532 10.2083 14.2082 10.2083ZM14.2082 7.91667H12.9582C12.6132 7.91667 12.3332 7.63667 12.3332 7.29167C12.3332 6.94667 12.6132 6.66667 12.9582 6.66667H14.2082C14.5532 6.66667 14.8332 6.94667 14.8332 7.29167C14.8332 7.63667 14.5532 7.91667 14.2082 7.91667Z" fill="#A4A4A4"/>
</svg>
