<svg width="20" height="20" viewBox="0 0 20 20" fill="none" xmlns="http://www.w3.org/2000/svg">
<path d="M19.4141 7.85156H18.524C18.3155 7.01906 17.988 6.22867 17.5464 5.49191L18.1759 4.86242C18.4048 4.63359 18.4048 4.26262 18.1759 4.03379L15.9662 1.82406C15.7374 1.59523 15.3664 1.59523 15.1376 1.82406L14.5081 2.45355C13.7714 2.01199 12.9809 1.68453 12.1484 1.47598V0.585938C12.1484 0.262344 11.8861 0 11.5625 0H8.4375C8.11391 0 7.85156 0.262344 7.85156 0.585938V1.47598C7.0191 1.68449 6.22859 2.01199 5.49191 2.45355L4.86242 1.82406C4.63359 1.59523 4.26262 1.59523 4.03379 1.82406L1.8241 4.03379C1.59527 4.26262 1.59527 4.63359 1.8241 4.86242L2.45355 5.49191C2.01199 6.22863 1.68453 7.01902 1.47598 7.85156H0.585938C0.262344 7.85156 0 8.11391 0 8.4375V11.5625C0 11.8861 0.262344 12.1484 0.585938 12.1484H1.47598C1.68453 12.981 2.01199 13.7714 2.45355 14.5081L1.82406 15.1376C1.59523 15.3664 1.59523 15.7374 1.82406 15.9662L4.03379 18.1759C4.26262 18.4047 4.63359 18.4047 4.86242 18.1759L5.49191 17.5464C6.22863 17.9879 7.01914 18.3154 7.85156 18.5239V19.4141C7.85156 19.7377 8.11391 20 8.4375 20H11.5625C11.8861 20 12.1484 19.7377 12.1484 19.4141V18.524C12.9809 18.3155 13.7714 17.988 14.5081 17.5464L15.1376 18.1759C15.3664 18.4047 15.7374 18.4047 15.9662 18.1759L18.1759 15.9662C18.4048 15.7374 18.4048 15.3664 18.1759 15.1376L17.5464 14.5081C17.988 13.7713 18.3155 12.9809 18.524 12.1484H19.4141C19.7377 12.1484 20 11.8861 20 11.5625V8.4375C20 8.11391 19.7377 7.85156 19.4141 7.85156ZM10 16.0547C6.66145 16.0547 3.94531 13.3386 3.94531 10C3.94531 6.66145 6.66145 3.94531 10 3.94531C13.3386 3.94531 16.0547 6.66145 16.0547 10C16.0547 13.3386 13.3386 16.0547 10 16.0547Z" fill="#A4A4A4"/>
<path d="M10 10.5859C10.7551 10.5859 11.3672 9.97383 11.3672 9.21875C11.3672 8.46367 10.7551 7.85156 10 7.85156C9.24492 7.85156 8.63281 8.46367 8.63281 9.21875C8.63281 9.97383 9.24492 10.5859 10 10.5859Z" fill="#A4A4A4"/>
<path d="M9.99997 11.7578C8.64204 11.7578 7.52981 12.8293 7.46411 14.1712C8.20368 14.6225 9.072 14.8828 9.99997 14.8828C10.9279 14.8828 11.7963 14.6225 12.5358 14.1712C12.4701 12.8293 11.3579 11.7578 9.99997 11.7578Z" fill="#A4A4A4"/>
<path d="M10 5.11719C7.30762 5.11719 5.11719 7.30762 5.11719 10C5.11719 11.2796 5.61223 12.4457 6.42055 13.3173C6.68969 12.335 7.35309 11.514 8.22949 11.0363C7.75586 10.5747 7.46094 9.9307 7.46094 9.21875C7.46094 7.81871 8.59996 6.67969 10 6.67969C11.4 6.67969 12.5391 7.81871 12.5391 9.21875C12.5391 9.9307 12.2441 10.5747 11.7705 11.0362C12.6469 11.514 13.3103 12.335 13.5795 13.3172C14.3878 12.4457 14.8828 11.2796 14.8828 10C14.8828 7.30762 12.6924 5.11719 10 5.11719Z" fill="#A4A4A4"/>
</svg>
