<svg width="20" height="21" viewBox="0 0 20 21" fill="none" xmlns="http://www.w3.org/2000/svg">
<rect y="0.5" width="20" height="20" rx="4" fill="#FF3232"/>
<path d="M10.8164 10.4725L14.8664 6.42248C14.9574 6.3162 15.005 6.17949 14.9996 6.03967C14.9942 5.89985 14.9362 5.76722 14.8373 5.66827C14.7383 5.56933 14.6057 5.51137 14.4659 5.50597C14.3261 5.50057 14.1894 5.54813 14.0831 5.63914L10.0331 9.68914L5.98308 5.63359C5.8768 5.54257 5.74009 5.49501 5.60027 5.50041C5.46045 5.50581 5.32782 5.56378 5.22888 5.66272C5.12994 5.76166 5.07197 5.89429 5.06657 6.03411C5.06117 6.17393 5.10873 6.31064 5.19975 6.41692L9.24975 10.4725L5.19419 14.5225C5.13603 14.5723 5.0888 14.6336 5.05545 14.7025C5.02211 14.7714 5.00337 14.8465 5.00041 14.923C4.99746 14.9995 5.01035 15.0758 5.03828 15.1471C5.06621 15.2184 5.10858 15.2831 5.16272 15.3373C5.21686 15.3914 5.28161 15.4338 5.3529 15.4617C5.42419 15.4896 5.50049 15.5025 5.577 15.4996C5.65351 15.4966 5.72858 15.4779 5.79751 15.4445C5.86643 15.4112 5.92772 15.364 5.97752 15.3058L10.0331 11.2558L14.0831 15.3058C14.1894 15.3968 14.3261 15.4444 14.4659 15.439C14.6057 15.4336 14.7383 15.3756 14.8373 15.2767C14.9362 15.1777 14.9942 15.0451 14.9996 14.9053C15.005 14.7655 14.9574 14.6288 14.8664 14.5225L10.8164 10.4725Z" fill="#FEFFFF" stroke="#FEFFFF" stroke-width="0.25"/>
</svg>
