<svg width="20" height="18" viewBox="0 0 20 18" fill="none" xmlns="http://www.w3.org/2000/svg">
<path d="M1.875 0.875C1.50416 0.875 1.14165 0.984967 0.833307 1.19099C0.524964 1.39702 0.284641 1.68986 0.142727 2.03247C0.000812411 2.37508 -0.0363188 2.75208 0.0360284 3.11579C0.108376 3.47951 0.286952 3.8136 0.549176 4.07583C0.811399 4.33805 1.14549 4.51663 1.50921 4.58897C1.87292 4.66132 2.24992 4.62419 2.59253 4.48227C2.93514 4.34036 3.22798 4.10004 3.43401 3.79169C3.64003 3.48335 3.75 3.12084 3.75 2.75C3.75 2.25272 3.55246 1.77581 3.20083 1.42417C2.8492 1.07254 2.37228 0.875 1.875 0.875ZM1.875 7.125C1.50416 7.125 1.14165 7.23497 0.833307 7.44099C0.524964 7.64702 0.284641 7.93986 0.142727 8.28247C0.000812411 8.62508 -0.0363188 9.00208 0.0360284 9.3658C0.108376 9.72951 0.286952 10.0636 0.549176 10.3258C0.811399 10.588 1.14549 10.7666 1.50921 10.839C1.87292 10.9113 2.24992 10.8742 2.59253 10.7323C2.93514 10.5904 3.22798 10.35 3.43401 10.0417C3.64003 9.73335 3.75 9.37084 3.75 9C3.75 8.50272 3.55246 8.02581 3.20083 7.67417C2.8492 7.32254 2.37228 7.125 1.875 7.125ZM1.875 13.375C1.50416 13.375 1.14165 13.485 0.833307 13.691C0.524964 13.897 0.284641 14.1899 0.142727 14.5325C0.000812411 14.8751 -0.0363188 15.2521 0.0360284 15.6158C0.108376 15.9795 0.286952 16.3136 0.549176 16.5758C0.811399 16.838 1.14549 17.0166 1.50921 17.089C1.87292 17.1613 2.24992 17.1242 2.59253 16.9823C2.93514 16.8404 3.22798 16.6 3.43401 16.2917C3.64003 15.9834 3.75 15.6208 3.75 15.25C3.75 14.7527 3.55246 14.2758 3.20083 13.9242C2.8492 13.5725 2.37228 13.375 1.875 13.375ZM19.375 14H6.875C6.70924 14 6.55027 14.0658 6.43306 14.1831C6.31585 14.3003 6.25 14.4592 6.25 14.625V15.875C6.25 16.0408 6.31585 16.1997 6.43306 16.3169C6.55027 16.4342 6.70924 16.5 6.875 16.5H19.375C19.5408 16.5 19.6997 16.4342 19.8169 16.3169C19.9342 16.1997 20 16.0408 20 15.875V14.625C20 14.4592 19.9342 14.3003 19.8169 14.1831C19.6997 14.0658 19.5408 14 19.375 14ZM19.375 1.5H6.875C6.70924 1.5 6.55027 1.56585 6.43306 1.68306C6.31585 1.80027 6.25 1.95924 6.25 2.125V3.375C6.25 3.54076 6.31585 3.69973 6.43306 3.81694C6.55027 3.93415 6.70924 4 6.875 4H19.375C19.5408 4 19.6997 3.93415 19.8169 3.81694C19.9342 3.69973 20 3.54076 20 3.375V2.125C20 1.95924 19.9342 1.80027 19.8169 1.68306C19.6997 1.56585 19.5408 1.5 19.375 1.5ZM19.375 7.75H6.875C6.70924 7.75 6.55027 7.81585 6.43306 7.93306C6.31585 8.05027 6.25 8.20924 6.25 8.375V9.625C6.25 9.79076 6.31585 9.94973 6.43306 10.0669C6.55027 10.1842 6.70924 10.25 6.875 10.25H19.375C19.5408 10.25 19.6997 10.1842 19.8169 10.0669C19.9342 9.94973 20 9.79076 20 9.625V8.375C20 8.20924 19.9342 8.05027 19.8169 7.93306C19.6997 7.81585 19.5408 7.75 19.375 7.75Z" fill="#FEFFFF"/>
</svg>
