<svg width="25" height="25" viewBox="0 0 25 25" fill="none" xmlns="http://www.w3.org/2000/svg">
<path d="M12.5 4.5C13.5609 4.5 14.5783 4.92143 15.3284 5.67157C16.0786 6.42172 16.5 7.43913 16.5 8.5C16.5 9.56087 16.0786 10.5783 15.3284 11.3284C14.5783 12.0786 13.5609 12.5 12.5 12.5C11.4391 12.5 10.4217 12.0786 9.67157 11.3284C8.92143 10.5783 8.5 9.56087 8.5 8.5C8.5 7.43913 8.92143 6.42172 9.67157 5.67157C10.4217 4.92143 11.4391 4.5 12.5 4.5ZM12.5 14.5C16.92 14.5 20.5 16.29 20.5 18.5V20.5H4.5V18.5C4.5 16.29 8.08 14.5 12.5 14.5Z" fill="#FEFFFF"/>
</svg>
