<svg width="17" height="16" viewBox="0 0 17 16" fill="none" xmlns="http://www.w3.org/2000/svg">
<g clip-path="url(#clip0)">
<path d="M14.2979 8.54102H13.0605C13.1867 8.88633 13.2556 9.25899 13.2556 9.64739V14.324C13.2556 14.4859 13.2274 14.6413 13.1761 14.7859H15.2218C15.9859 14.7859 16.6076 14.1642 16.6076 13.4001V10.8507C16.6076 9.57714 15.5715 8.54102 14.2979 8.54102Z" fill="#DAB451"/>
<path d="M3.95946 9.64739C3.95946 9.25895 4.02837 8.88633 4.15449 8.54102H2.91711C1.64355 8.54102 0.607422 9.57714 0.607422 10.8507V13.4001C0.607422 14.1642 1.22908 14.7859 1.99324 14.7859H4.03893C3.98765 14.6413 3.95946 14.4859 3.95946 14.324V9.64739Z" fill="#DAB451"/>
<path d="M10.0218 7.33789H7.19299C5.91943 7.33789 4.8833 8.37402 4.8833 9.64758V14.3242C4.8833 14.5792 5.09011 14.7861 5.34524 14.7861H11.8696C12.1247 14.7861 12.3315 14.5793 12.3315 14.3242V9.64758C12.3315 8.37402 11.2954 7.33789 10.0218 7.33789Z" fill="#DAB451"/>
<path d="M8.60777 1.21484C7.07614 1.21484 5.83008 2.46091 5.83008 3.99257C5.83008 5.03148 6.40348 5.93882 7.2503 6.4152C7.65195 6.64114 8.11502 6.77026 8.60777 6.77026C9.10052 6.77026 9.56358 6.64114 9.96523 6.4152C10.8121 5.93882 11.3855 5.03145 11.3855 3.99257C11.3855 2.46094 10.1394 1.21484 8.60777 1.21484Z" fill="#DAB451"/>
<path d="M3.72969 3.80273C2.58422 3.80273 1.65234 4.73461 1.65234 5.88008C1.65234 7.02555 2.58422 7.95743 3.72969 7.95743C4.02025 7.95743 4.29694 7.89724 4.54829 7.78906C4.98285 7.60196 5.34116 7.27077 5.56288 6.85593C5.71851 6.56477 5.80704 6.23261 5.80704 5.88008C5.80704 4.73464 4.87516 3.80273 3.72969 3.80273Z" fill="#DAB451"/>
<path d="M13.4851 3.80273C12.3396 3.80273 11.4077 4.73461 11.4077 5.88008C11.4077 6.23265 11.4962 6.5648 11.6519 6.85593C11.8736 7.2708 12.2319 7.60199 12.6665 7.78906C12.9178 7.89724 13.1945 7.95743 13.4851 7.95743C14.6305 7.95743 15.5624 7.02555 15.5624 5.88008C15.5624 4.73461 14.6305 3.80273 13.4851 3.80273Z" fill="#DAB451"/>
</g>
</svg>
