<svg width="14" height="14" viewBox="0 0 14 14" fill="none" xmlns="http://www.w3.org/2000/svg">
<path d="M12.5234 3.96484H1.47656C0.798082 3.96484 0.246094 4.51683 0.246094 5.19531V10.1172C0.246094 10.7957 0.798082 11.3477 1.47656 11.3477H12.5234C13.2019 11.3477 13.7539 10.7957 13.7539 10.1172V5.19531C13.7539 4.51683 13.2019 3.96484 12.5234 3.96484ZM3.49292 8.2944C3.38805 8.2944 3.2089 8.29514 3.0412 8.29598V9.242C3.0412 9.46851 2.85756 9.65215 2.63104 9.65215C2.40453 9.65215 2.22089 9.46851 2.22089 9.242L2.21484 6.12631C2.21449 6.01732 2.25755 5.91265 2.3345 5.83543C2.41145 5.75821 2.51601 5.71484 2.625 5.71484H3.49292C4.21359 5.71484 4.79992 6.29344 4.79992 7.00462C4.79992 7.7158 4.21359 8.2944 3.49292 8.2944ZM7.01392 9.55325C6.76963 9.55752 6.15858 9.55984 6.13268 9.55995C6.13216 9.55995 6.13164 9.55995 6.13112 9.55995C6.0229 9.55995 5.91902 9.51718 5.84218 9.44089C5.76496 9.36425 5.72138 9.26007 5.72097 9.15127C5.72094 9.14033 5.71484 6.12579 5.71484 6.12579C5.71465 6.01688 5.75775 5.91235 5.83469 5.83527C5.91164 5.75818 6.01609 5.71484 6.125 5.71484H6.98168C7.95763 5.71484 8.61334 6.48747 8.61334 7.63741C8.61334 8.73132 7.94068 9.53706 7.01392 9.55325ZM11.217 7.20098C11.4435 7.20098 11.6271 7.38462 11.6271 7.61113C11.6271 7.83765 11.4435 8.02129 11.217 8.02129H10.4727V9.1875C10.4727 9.41402 10.289 9.59766 10.0625 9.59766C9.83598 9.59766 9.65234 9.41402 9.65234 9.1875V6.09334C9.65234 5.86682 9.83598 5.68318 10.0625 5.68318H11.3166C11.5431 5.68318 11.7267 5.86682 11.7267 6.09334C11.7267 6.31985 11.5431 6.50349 11.3166 6.50349H10.4727V7.20098H11.217Z" fill="#FEFFFF"/>
<path d="M6.98192 6.53516H6.53613C6.53676 6.90539 6.539 8.38124 6.54015 8.7375C6.71083 8.73641 6.8936 8.73491 6.99983 8.73305C7.54793 8.72348 7.79328 8.17586 7.79328 7.63741C7.79325 7.37882 7.73477 6.53516 6.98192 6.53516Z" fill="#FEFFFF"/>
<path d="M3.49291 6.53516H3.03638C3.03687 6.71768 3.03733 6.91184 3.03733 7.00462C3.03733 7.11304 3.0381 7.30108 3.03897 7.4757C3.2073 7.47485 3.38712 7.47409 3.49294 7.47409C3.75675 7.47409 3.97963 7.25911 3.97963 7.00462C3.97963 6.75013 3.75672 6.53516 3.49291 6.53516Z" fill="#FEFFFF"/>
<path d="M12.0984 3.14453C12.0033 2.88395 11.8556 2.6431 11.6601 2.43688L9.95649 0.639816C9.571 0.233215 9.02855 0 8.46822 0H3.00781C2.32933 0 1.77734 0.551988 1.77734 1.23047V3.14453H12.0984Z" fill="#FEFFFF"/>
<path d="M1.77734 12.168V12.7695C1.77734 13.448 2.32933 14 3.00781 14H10.9922C11.6707 14 12.2227 13.448 12.2227 12.7695V12.168H1.77734Z" fill="#FEFFFF"/>
</svg>
