<svg width="39" height="23" viewBox="0 0 39 23" fill="none" xmlns="http://www.w3.org/2000/svg"><path fill-rule="evenodd" clip-rule="evenodd" d="M12.1259 0.0683707C13.4565 -0.00582253 14.7856 0.000112922 16.1162 0.000112922C16.1254 0.000112922 22.8586 0.000112922 22.8586 0.000112922C24.2152 0.000112922 25.5442 -0.00582253 26.8741 0.0683707C28.0831 0.135145 29.2607 0.277595 30.433 0.595884C32.9007 1.26511 35.0556 2.66291 36.6134 4.64461C38.1619 6.61369 39 9.02423 39 11.4993C39 13.9774 38.1619 16.3864 36.6134 18.3555C35.0556 20.3365 32.9007 21.735 30.433 22.4042C29.2607 22.7225 28.0831 22.8642 26.8741 22.9317C25.5442 23.0059 24.2152 22.9993 22.8846 22.9993C22.8754 22.9993 16.1406 23 16.1406 23C14.7856 22.9993 13.4565 23.0059 12.1259 22.9317C10.9177 22.8642 9.74006 22.7225 8.56777 22.4042C6.10006 21.735 3.94512 20.3365 2.38741 18.3555C0.838882 16.3864 0 13.9774 0 11.5001C0 9.02423 0.838882 6.61369 2.38741 4.64461C3.94512 2.66291 6.10006 1.26511 8.56777 0.595884C9.74006 0.277595 10.9177 0.135145 12.1259 0.0683707Z" fill="#DAB451"/><mask id="mask0" mask-type="alpha" maskUnits="userSpaceOnUse" x="0" y="0" width="39" height="23"><path fill-rule="evenodd" clip-rule="evenodd" d="M12.1259 0.0683706C13.4565 -0.00582253 14.7856 0.000112922 16.1162 0.000112922C16.1254 0.000112922 22.8586 0.000112922 22.8586 0.000112922C24.2152 0.000112922 25.5442 -0.00582253 26.8741 0.0683706C28.0831 0.135145 29.2607 0.277595 30.433 0.595884C32.9007 1.26511 35.0556 2.66291 36.6134 4.64461C38.1619 6.61369 39 9.02423 39 11.4993C39 13.9774 38.1619 16.3864 36.6134 18.3555C35.0556 20.3365 32.9007 21.735 30.433 22.4042C29.2607 22.7225 28.0831 22.8642 26.8741 22.9317C25.5442 23.0059 24.2152 22.9993 22.8846 22.9993C22.8754 22.9993 16.1406 23 16.1406 23C14.7856 22.9993 13.4565 23.0059 12.1259 22.9317C10.9177 22.8642 9.74006 22.7225 8.56777 22.4042C6.10006 21.735 3.94512 20.3365 2.38741 18.3555C0.838882 16.3864 0 13.9774 0 11.5001C0 9.02423 0.838882 6.61369 2.38741 4.64461C3.94512 2.66291 6.10006 1.26511 8.56777 0.595884C9.74006 0.277595 10.9177 0.135145 12.1259 0.0683706Z" fill="white"/></mask><g mask="url(#mask0)"><g filter="url(#filter0_dd)"><path fill-rule="evenodd" clip-rule="evenodd" d="M27.5 22C33.299 22 38 17.299 38 11.5C38 5.70101 33.299 1 27.5 1C21.701 1 17 5.70101 17 11.5C17 17.299 21.701 22 27.5 22Z" fill="white"/><path d="M27.5 22.25C33.4371 22.25 38.25 17.4371 38.25 11.5C38.25 5.56294 33.4371 0.75 27.5 0.75C21.5629 0.75 16.75 5.56294 16.75 11.5C16.75 17.4371 21.5629 22.25 27.5 22.25Z" stroke="black" stroke-opacity="0.04" stroke-width="0.5"/></g></g><defs><filter id="filter0_dd" x="8.5" y="-4.5" width="38" height="38" filterUnits="userSpaceOnUse" color-interpolation-filters="sRGB"><feFlood flood-opacity="0" result="BackgroundImageFix"/><feColorMatrix in="SourceAlpha" type="matrix" values="0 0 0 0 0 0 0 0 0 0 0 0 0 0 0 0 0 0 127 0"/><feOffset dy="3"/><feGaussianBlur stdDeviation="0.5"/><feColorMatrix type="matrix" values="0 0 0 0 0 0 0 0 0 0 0 0 0 0 0 0 0 0 0.06 0"/><feBlend mode="normal" in2="BackgroundImageFix" result="effect1_dropShadow"/><feColorMatrix in="SourceAlpha" type="matrix" values="0 0 0 0 0 0 0 0 0 0 0 0 0 0 0 0 0 0 127 0"/><feOffset dy="3"/><feGaussianBlur stdDeviation="4"/><feColorMatrix type="matrix" values="0 0 0 0 0 0 0 0 0 0 0 0 0 0 0 0 0 0 0.15 0"/><feBlend mode="normal" in2="effect1_dropShadow" result="effect2_dropShadow"/><feBlend mode="normal" in="SourceGraphic" in2="effect2_dropShadow" result="shape"/></filter></defs></svg>
