<svg width="25" height="25" viewBox="0 0 20 20" fill="none" xmlns="http://www.w3.org/2000/svg">
<path d="M6.66667 14.8333C6.33333 14.8333 6 14.5833 6 14.1667V10.8333C6 10.5 6.25 10.1667 6.66667 10.1667C7.08333 10.1667 7.33333 10.4167 7.33333 10.8333V14.1667C7.33333 14.5 7 14.8333 6.66667 14.8333Z" fill="#999999"/>
<path d="M10 14.8333C9.66667 14.8333 9.33334 14.5833 9.33334 14.1667V5.83334C9.33334 5.50001 9.58334 5.16667 10 5.16667C10.4167 5.16667 10.6667 5.41667 10.6667 5.83334V14.1667C10.6667 14.5 10.3333 14.8333 10 14.8333Z" fill="#999999"/>
<path d="M13.3333 14.8333C13 14.8333 12.6667 14.5833 12.6667 14.1667V8.33334C12.6667 8.00001 12.9167 7.66667 13.3333 7.66667C13.75 7.66667 14 7.91667 14 8.33334V14.1667C14 14.5 13.6667 14.8333 13.3333 14.8333Z" fill="#999999"/>
<path d="M15.8333 18.1667H4.16667C2.91667 18.1667 1.83333 17.1667 1.83333 15.8333V4.16666C1.83333 2.91666 2.83333 1.83333 4.16667 1.83333H15.8333C17.0833 1.83333 18.1667 2.83333 18.1667 4.16666V15.8333C18.1667 17.0833 17.0833 18.1667 15.8333 18.1667ZM4.16667 3.16666C3.58333 3.16666 3.16667 3.58333 3.16667 4.16666V15.8333C3.16667 16.4167 3.66667 16.8333 4.16667 16.8333H15.8333C16.4167 16.8333 16.8333 16.3333 16.8333 15.8333V4.16666C16.8333 3.58333 16.3333 3.16666 15.8333 3.16666H4.16667Z" fill="#999999"/>
</svg>
