<svg width="12" height="14" viewBox="0 0 12 14" fill="none" xmlns="http://www.w3.org/2000/svg">
<path d="M5.99984 13.6668C5.64622 13.6668 5.30708 13.5264 5.05703 13.2763C4.80698 13.0263 4.6665 12.6871 4.6665 12.3335H7.33317C7.33317 12.6871 7.19269 13.0263 6.94265 13.2763C6.6926 13.5264 6.35346 13.6668 5.99984 13.6668ZM11.3332 11.6668H0.666504V10.3335L1.99984 9.66683V6.00017C1.96472 5.05958 2.17713 4.12625 2.61584 3.2935C2.83173 2.91168 3.12612 2.57997 3.4796 2.32026C3.83308 2.06055 4.23761 1.87875 4.6665 1.78683V0.333499H7.09717C6.67483 0.805505 6.41271 1.39907 6.34836 2.02917C6.28402 2.65927 6.42075 3.29356 6.73897 3.84119C7.05719 4.38883 7.54056 4.82169 8.11986 5.07778C8.69915 5.33387 9.34463 5.40005 9.96384 5.26683C9.98717 5.50483 9.9985 5.7515 9.9985 6.00017V9.66683L11.3318 10.3335V11.6668H11.3332ZM9.33317 4.3335C9.07053 4.33306 8.81054 4.2809 8.56806 4.17998C8.32557 4.07907 8.10534 3.93138 7.91993 3.74536C7.73453 3.55933 7.58757 3.3386 7.48747 3.09579C7.38736 2.85297 7.33607 2.59281 7.3365 2.33017C7.33694 2.06752 7.38911 1.80754 7.49002 1.56505C7.59093 1.32257 7.73862 1.10234 7.92465 0.916928C8.11067 0.731521 8.3314 0.584569 8.57422 0.484464C8.81704 0.384359 9.07719 0.333061 9.33984 0.333499C9.87027 0.334383 10.3786 0.545944 10.7531 0.921642C11.1275 1.29734 11.3374 1.8064 11.3365 2.33683C11.3356 2.86727 11.1241 3.37562 10.7484 3.75007C10.3727 4.12452 9.8636 4.33438 9.33317 4.3335Z" fill="#DAB451"/>
</svg>
