<svg width="28" height="28" viewBox="0 0 28 28" fill="none" xmlns="http://www.w3.org/2000/svg">
<path d="M18.8644 4.04781H18.6583H1.89906C1.52647 4.04781 1.17009 4.19445 0.908076 4.45397C0.646224 4.71332 0.5 5.06405 0.5 5.42875V26.1191C0.5 26.4838 0.646224 26.8345 0.908076 27.0938L0.559025 27.4463L0.908077 27.0938C1.17009 27.3534 1.52647 27.5 1.89906 27.5H22.7887C23.1613 27.5 23.5177 27.3534 23.7797 27.0938C24.0416 26.8345 24.1878 26.4838 24.1878 26.1191V8.96491V8.7564L24.3359 8.60966L27.1843 5.78852L18.8644 4.04781ZM18.8644 4.04781L19.0107 3.90252M18.8644 4.04781L19.0107 3.90252M19.0107 3.90252L22.1297 0.803853C22.3379 0.609233 22.6144 0.5 22.9027 0.5C23.1911 0.5 23.4676 0.609314 23.6759 0.804074M19.0107 3.90252L23.6759 0.804074M23.6759 0.804074L27.1843 4.27898C27.1843 4.279 27.1843 4.27903 27.1843 4.27905C27.387 4.48015 27.5 4.75167 27.5 5.03375C27.5 5.31574 27.3871 5.58718 27.1845 5.78826L23.6759 0.804074ZM14.1889 17.325L14.33 17.2939L14.4328 17.1924L23.5388 8.20154L23.8986 7.84631L23.5394 7.49051L20.4724 4.45279L20.1202 4.10393L19.7683 4.45316L10.7003 13.4534L10.6001 13.5529L10.5667 13.6901L9.61717 17.5931L9.42776 18.3717L10.2104 18.1996L14.1889 17.325ZM23.8612 7.12886L24.213 7.47736L24.5649 7.12886L26.3215 5.38899L26.6802 5.03375L26.3215 4.6785L23.2545 1.64079L22.9027 1.29229L22.5508 1.64079L20.7942 3.38066L20.4355 3.7359L20.7942 4.09115L23.8612 7.12886Z" stroke="#FEFFFF"/>
</svg>
