<svg width="14" height="14" viewBox="0 0 14 14" fill="none" xmlns="http://www.w3.org/2000/svg">
<path d="M3.5 2.25024V0.321289L1.13953 2.50024H3.25C3.38806 2.50024 3.5 2.38831 3.5 2.25024Z" fill="#FEFFFF"/>
<path d="M0.749878 13.75C0.749878 13.8881 0.861816 14 0.999878 14H11.4999C11.6379 14 11.7499 13.8881 11.7499 13.75V10.25H3.49988C3.08569 10.25 2.74988 9.91418 2.74988 9.5V5C2.74988 4.58582 3.08569 4.25 3.49988 4.25H11.7499V0.25C11.7499 0.111938 11.6379 0 11.4999 0H3.99988V2.25C3.99988 2.66418 3.66406 3 3.24988 3H0.749878V13.75Z" fill="#FEFFFF"/>
<path d="M13.2502 9.50049V5.00049C13.2502 4.86243 13.1383 4.75049 13.0002 4.75049H3.50024C3.36218 4.75049 3.25024 4.86243 3.25024 5.00049V9.50049C3.25024 9.63855 3.36218 9.75049 3.50024 9.75049H13.0002C13.1383 9.75049 13.2502 9.63855 13.2502 9.50049ZM6.45825 8.6117C6.53491 8.72656 6.50391 8.88184 6.38904 8.9585C6.27417 9.03516 6.1189 9.00415 6.04224 8.88928L5.25024 7.70044L4.45825 8.88843C4.38159 9.00342 4.22632 9.03442 4.11145 8.95776C3.99658 8.8811 3.96558 8.72583 4.04224 8.61096L4.9502 7.25049L4.04272 5.88928C3.96606 5.77441 3.99707 5.61914 4.11194 5.54248C4.22693 5.46582 4.38208 5.49683 4.45874 5.61169L5.25024 6.80054L6.04224 5.61255C6.1189 5.49756 6.27417 5.46655 6.38904 5.54321C6.50391 5.61987 6.53491 5.77515 6.45825 5.89001L5.55029 7.25049L6.45825 8.6117ZM9.25024 9.00049H7.25024C7.11218 9.00049 7.00024 8.88855 7.00024 8.75049V5.75049C7.00024 5.61243 7.11218 5.50049 7.25024 5.50049C7.38831 5.50049 7.50024 5.61243 7.50024 5.75049V8.50049H9.25024C9.38831 8.50049 9.50024 8.61243 9.50024 8.75049C9.50024 8.88855 9.38831 9.00049 9.25024 9.00049ZM12.5002 8.25049C12.5002 8.66467 12.1644 9.00049 11.7502 9.00049H10.7502C10.3405 8.99902 10.0071 8.67004 10.0002 8.26025C9.99841 8.12195 10.108 8.00781 10.2462 8.00403H10.2502C10.3859 8.00232 10.4976 8.11035 10.5002 8.24597C10.4991 8.38525 10.611 8.49915 10.7502 8.50049H11.7502C11.8883 8.50049 12.0002 8.38855 12.0002 8.25049V7.75049C12.0002 7.61243 11.8883 7.50049 11.7502 7.50049H10.7502C10.3361 7.50049 10.0002 7.16467 10.0002 6.75049V6.25049C10.0002 5.8363 10.3361 5.50049 10.7502 5.50049H11.7629C11.9615 5.50061 12.1517 5.58069 12.2905 5.72278C12.4293 5.86487 12.5049 6.05689 12.5002 6.25549C12.4976 6.3916 12.3864 6.50049 12.2502 6.50049H12.2472C12.1104 6.4989 12.0002 6.38745 12.0002 6.25049C12.0033 6.1842 11.9789 6.11963 11.9327 6.07202C11.8882 6.02612 11.8269 6.00037 11.7629 6.00049H10.7502C10.6122 6.00049 10.5002 6.11243 10.5002 6.25049V6.75049C10.5002 6.88855 10.6122 7.00049 10.7502 7.00049H11.7502C12.1644 7.00049 12.5002 7.3363 12.5002 7.75049V8.25049Z" fill="#FEFFFF"/>
</svg>
