<svg width="16" height="16" viewBox="0 0 16 16" fill="none" xmlns="http://www.w3.org/2000/svg">
<path d="M10.7677 2.52732H10.5601H1.07482C0.922369 2.52732 0.776161 2.58788 0.668361 2.69568C0.560561 2.80348 0.5 2.94969 0.5 3.10214V14.9252C0.5 15.0776 0.560562 15.2238 0.668361 15.3316L0.315874 15.6841L0.668362 15.3316C0.776161 15.4394 0.922369 15.5 1.07482 15.5H12.8979C13.0503 15.5 13.1965 15.4394 13.3043 15.3316C13.4121 15.2238 13.4727 15.0776 13.4727 14.9252V5.12281V4.9157L13.6191 4.76925L15.2311 3.15728L10.7677 2.52732ZM10.7677 2.52732L10.9142 2.38034M10.7677 2.52732L10.9142 2.38034M10.9142 2.38034L12.677 0.61223C12.7364 0.556881 12.8104 0.520365 12.8894 0.506391L12.6088 0.787037L11.6146 1.78125L11.261 2.1348L11.2769 2.15067L11.0338 2.39427L5.90154 7.53729L5.80229 7.63674L5.76938 7.77334L5.23196 10.0036L5.04429 10.7824L5.82639 10.6088L8.07815 10.1091L8.21994 10.0776M10.9142 2.38034L8.21994 10.0776M8.21994 10.0776L8.3228 9.97504L13.4766 4.83739L13.8312 4.48384L13.8146 4.46716L14.0575 4.22419L15.0517 3.22998L15.3423 2.93943M8.21994 10.0776L15.3423 2.93943M15.3423 2.93943C15.3291 3.02129 15.2906 3.09756 15.2314 3.15702L15.3423 2.93943ZM13.3159 0.787037L13.0353 0.506391C13.1144 0.520382 13.1884 0.556972 13.248 0.612436L15.2311 2.59558C15.2312 2.59565 15.2312 2.59572 15.2313 2.59579C15.2313 2.59581 15.2313 2.59582 15.2314 2.59584C15.2906 2.65529 15.3291 2.73157 15.3423 2.81342L15.0517 2.52287L13.3159 0.787037Z" stroke="#FEFFFF"/>
</svg>
