<svg width="24" height="24" viewBox="0 0 24 24" fill="none" xmlns="http://www.w3.org/2000/svg" xmlns:xlink="http://www.w3.org/1999/xlink">
<path d="M11.9978 21.4957C17.2363 21.4957 21.483 17.249 21.483 12.0105C21.483 6.77204 17.2363 2.52539 11.9978 2.52539C6.75934 2.52539 2.5127 6.77204 2.5127 12.0105C2.5127 17.249 6.75934 21.4957 11.9978 21.4957Z" fill="url(#paint0_linear)"/>
<path d="M11.9976 20.4942C16.6839 20.4942 20.4829 16.6951 20.4829 12.0088C20.4829 7.32246 16.6839 3.52344 11.9976 3.52344C7.31123 3.52344 3.51221 7.32246 3.51221 12.0088C3.51221 16.6951 7.31123 20.4942 11.9976 20.4942Z" fill="url(#paint1_linear)"/>
<path d="M11.9978 2.52539C6.76819 2.52539 2.5127 6.78089 2.5127 12.0105C2.5127 17.2402 6.76819 21.4957 11.9978 21.4957C17.2275 21.4957 21.483 17.2402 21.483 12.0105C21.4574 6.78089 17.2275 2.52539 11.9978 2.52539ZM11.9978 21.3419C6.8451 21.3419 2.64087 17.1633 2.64087 12.0105C2.64087 6.8578 6.8451 2.65357 11.9978 2.65357C17.1506 2.65357 21.3548 6.8578 21.3548 12.0105C21.3292 17.1633 17.1506 21.3419 11.9978 21.3419Z" fill="url(#paint2_linear)"/>
<path d="M11.9976 3.31836C7.20373 3.31836 3.30713 7.21496 3.30713 12.0088C3.30713 16.8026 7.20373 20.6992 11.9976 20.6992C16.7914 20.6992 20.688 16.8026 20.688 12.0088C20.688 7.21496 16.7914 3.31836 11.9976 3.31836ZM11.9976 20.4942C7.30627 20.4942 3.51221 16.6745 3.51221 12.0088C3.51221 7.34314 7.30627 3.49781 11.9976 3.49781C16.6889 3.49781 20.4829 7.3175 20.4829 11.9832C20.4829 16.6488 16.6632 20.4942 11.9976 20.4942Z" fill="url(#paint3_linear)"/>
<g opacity="0.7">
<path opacity="0.7" d="M11.9976 20.4942C16.6839 20.4942 20.4829 16.6951 20.4829 12.0088C20.4829 7.32246 16.6839 3.52344 11.9976 3.52344C7.31123 3.52344 3.51221 7.32246 3.51221 12.0088C3.51221 16.6951 7.31123 20.4942 11.9976 20.4942Z" fill="#B9552C"/>
<path opacity="0.7" d="M18 18C21.3137 14.6863 21.3137 9.31371 18 6C14.6863 2.68629 9.31371 2.68629 6 6C2.68629 9.31371 2.68629 14.6863 6 18C9.31371 21.3137 14.6863 21.3137 18 18Z" fill="#C96336"/>
<path opacity="0.7" d="M11.9978 20.4702C16.67 20.4702 20.4575 16.6827 20.4575 12.0105C20.4575 7.33833 16.67 3.55078 11.9978 3.55078C7.32563 3.55078 3.53809 7.33833 3.53809 12.0105C3.53809 16.6827 7.32563 20.4702 11.9978 20.4702Z" fill="#EA8A5F"/>
<path opacity="0.7" d="M11.9978 20.4702C16.67 20.4702 20.4575 16.6827 20.4575 12.0105C20.4575 7.33833 16.67 3.55078 11.9978 3.55078C7.32563 3.55078 3.53809 7.33833 3.53809 12.0105C3.53809 16.6827 7.32563 20.4702 11.9978 20.4702Z" fill="#D36941"/>
<path opacity="0.7" d="M11.9978 20.4702C16.67 20.4702 20.4575 16.6827 20.4575 12.0105C20.4575 7.33833 16.67 3.55078 11.9978 3.55078C7.32563 3.55078 3.53809 7.33833 3.53809 12.0105C3.53809 16.6827 7.32563 20.4702 11.9978 20.4702Z" fill="#AC4A32"/>
<path opacity="0.7" d="M17.9635 17.9637C21.2572 14.6701 21.2572 9.32994 17.9635 6.03625C14.6698 2.74257 9.3297 2.74257 6.03601 6.03625C2.74233 9.32994 2.74233 14.6701 6.03601 17.9637C9.3297 21.2574 14.6698 21.2574 17.9635 17.9637Z" fill="#BF5D31"/>
<path opacity="0.7" d="M11.9981 20.4424C16.6561 20.4424 20.4321 16.6663 20.4321 12.0083C20.4321 7.35029 16.6561 3.57422 11.9981 3.57422C7.34004 3.57422 3.56396 7.35029 3.56396 12.0083C3.56396 16.6663 7.34004 20.4424 11.9981 20.4424Z" fill="#A4402F"/>
<path opacity="0.7" d="M11.9978 20.4185C16.6417 20.4185 20.4063 16.6539 20.4063 12.01C20.4063 7.36616 16.6417 3.60156 11.9978 3.60156C7.35395 3.60156 3.58936 7.36616 3.58936 12.01C3.58936 16.6539 7.35395 20.4185 11.9978 20.4185Z" fill="#C3552F"/>
<path opacity="0.7" d="M20.3958 12.3616C20.6002 7.7224 17.005 3.79588 12.3658 3.59148C7.7266 3.38708 3.80008 6.98222 3.59568 11.6214C3.39128 16.2607 6.98642 20.1872 11.6256 20.3916C16.2649 20.596 20.1914 17.0008 20.3958 12.3616Z" fill="#A74431"/>
<path opacity="0.7" d="M17.9275 17.9275C21.2012 14.6538 21.2012 9.34617 17.9275 6.07251C14.6538 2.79885 9.34617 2.79885 6.07251 6.07251C2.79885 9.34617 2.79885 14.6538 6.07251 17.9275C9.34617 21.2012 14.6538 21.2012 17.9275 17.9275Z" fill="#B9573C"/>
<path opacity="0.7" d="M11.9976 20.3926C16.6273 20.3926 20.3804 16.6395 20.3804 12.0098C20.3804 7.38007 16.6273 3.62695 11.9976 3.62695C7.36786 3.62695 3.61475 7.38007 3.61475 12.0098C3.61475 16.6395 7.36786 20.3926 11.9976 20.3926Z" fill="#CC6848"/>
<path opacity="0.7" d="M11.9976 20.3926C16.6273 20.3926 20.3804 16.6395 20.3804 12.0098C20.3804 7.38007 16.6273 3.62695 11.9976 3.62695C7.36786 3.62695 3.61475 7.38007 3.61475 12.0098C3.61475 16.6395 7.36786 20.3926 11.9976 20.3926Z" fill="#BA553F"/>
<path opacity="0.7" d="M11.9978 20.3667C16.6134 20.3667 20.355 16.6251 20.355 12.0095C20.355 7.39398 16.6134 3.65234 11.9978 3.65234C7.38226 3.65234 3.64062 7.39398 3.64062 12.0095C3.64062 16.6251 7.38226 20.3667 11.9978 20.3667Z" fill="#7A7A7A"/>
<path opacity="0.7" d="M17.9097 17.9094C21.1734 14.6457 21.1734 9.35429 17.9097 6.09063C14.6461 2.82698 9.35466 2.82698 6.09101 6.09063C2.82735 9.35429 2.82735 14.6457 6.09101 17.9094C9.35466 21.173 14.6461 21.173 17.9097 17.9094Z" fill="#7D7D7D"/>
<path opacity="0.7" d="M11.9976 20.3428C16.599 20.3428 20.3291 16.6126 20.3291 12.0112C20.3291 7.40985 16.599 3.67969 11.9976 3.67969C7.39618 3.67969 3.66602 7.40985 3.66602 12.0112C3.66602 16.6126 7.39618 20.3428 11.9976 20.3428Z" fill="#818181"/>
<path opacity="0.7" d="M11.9976 20.3428C16.599 20.3428 20.3291 16.6126 20.3291 12.0112C20.3291 7.40985 16.599 3.67969 11.9976 3.67969C7.39618 3.67969 3.66602 7.40985 3.66602 12.0112C3.66602 16.6126 7.39618 20.3428 11.9976 20.3428Z" fill="#848484"/>
<path opacity="0.7" d="M20.2932 12.3571C20.495 7.77449 16.9437 3.89591 12.361 3.69407C7.7784 3.49223 3.89982 7.04358 3.69798 11.6262C3.49614 16.2089 7.04749 20.0874 11.6301 20.2893C16.2128 20.4911 20.0914 16.9398 20.2932 12.3571Z" fill="#888888"/>
<path opacity="0.7" d="M12.1301 20.3139C16.7169 20.2408 20.376 16.4633 20.303 11.8765C20.2299 7.28976 16.4524 3.63066 11.8656 3.70369C7.27886 3.77673 3.61976 7.55425 3.69279 12.141C3.76583 16.7278 7.54335 20.3869 12.1301 20.3139Z" fill="#8B8B8B"/>
<path opacity="0.7" d="M11.9976 20.2891C16.5706 20.2891 20.2778 16.5819 20.2778 12.0088C20.2778 7.43572 16.5706 3.72852 11.9976 3.72852C7.42449 3.72852 3.71729 7.43572 3.71729 12.0088C3.71729 16.5819 7.42449 20.2891 11.9976 20.2891Z" fill="#8E8E8E"/>
<path opacity="0.7" d="M11.9976 20.2891C16.5706 20.2891 20.2778 16.5819 20.2778 12.0088C20.2778 7.43572 16.5706 3.72852 11.9976 3.72852C7.42449 3.72852 3.71729 7.43572 3.71729 12.0088C3.71729 16.5819 7.42449 20.2891 11.9976 20.2891Z" fill="#929292"/>
<path opacity="0.7" d="M17.855 17.855C21.0886 14.6214 21.0886 9.37863 17.855 6.14502C14.6214 2.9114 9.37864 2.9114 6.14502 6.14502C2.9114 9.37863 2.91141 14.6214 6.14502 17.855C9.37864 21.0886 14.6214 21.0886 17.855 17.855Z" fill="#959595"/>
<path opacity="0.7" d="M12.1295 20.2629C16.6879 20.1903 20.3245 16.4361 20.2519 11.8777C20.1793 7.3192 16.4251 3.68269 11.8666 3.75528C7.30815 3.82787 3.67164 7.58208 3.74423 12.1405C3.81682 16.699 7.57103 20.3355 12.1295 20.2629Z" fill="#999999"/>
<path opacity="0.7" d="M11.9973 20.2632C16.5562 20.2632 20.252 16.5675 20.252 12.0085C20.252 7.44964 16.5562 3.75391 11.9973 3.75391C7.43841 3.75391 3.74268 7.44964 3.74268 12.0085C3.74268 16.5675 7.43841 20.2632 11.9973 20.2632Z" fill="#9C9C9C"/>
<path opacity="0.7" d="M11.9976 20.2393C16.5423 20.2393 20.2266 16.555 20.2266 12.0103C20.2266 7.4655 16.5423 3.78125 11.9976 3.78125C7.45281 3.78125 3.76855 7.4655 3.76855 12.0103C3.76855 16.555 7.45281 20.2393 11.9976 20.2393Z" fill="#9F9F9F"/>
<path opacity="0.7" d="M17.8185 17.8187C21.0321 14.6051 21.0321 9.39487 17.8185 6.18127C14.6049 2.96767 9.39463 2.96767 6.18104 6.18127C2.96744 9.39487 2.96744 14.6051 6.18104 17.8187C9.39463 21.0323 14.6049 21.0323 17.8185 17.8187Z" fill="#A3A3A3"/>
<path opacity="0.7" d="M12.1288 20.212C16.659 20.1398 20.2729 16.4089 20.2008 11.8788C20.1286 7.34865 16.3977 3.73473 11.8676 3.80687C7.33745 3.87902 3.72352 7.60991 3.79567 12.14C3.86781 16.6702 7.5987 20.2841 12.1288 20.212Z" fill="#A6A6A6"/>
<path opacity="0.7" d="M11.9978 20.2134C16.5284 20.2134 20.2012 16.5406 20.2012 12.01C20.2012 7.47941 16.5284 3.80664 11.9978 3.80664C7.46721 3.80664 3.79443 7.47941 3.79443 12.01C3.79443 16.5406 7.46721 20.2134 11.9978 20.2134Z" fill="#AAAAAA"/>
<path opacity="0.7" d="M11.9978 20.2134C16.5284 20.2134 20.2012 16.5406 20.2012 12.01C20.2012 7.47941 16.5284 3.80664 11.9978 3.80664C7.46721 3.80664 3.79443 7.47941 3.79443 12.01C3.79443 16.5406 7.46721 20.2134 11.9978 20.2134Z" fill="#ADADAD"/>
<path opacity="0.7" d="M17.7825 17.7825C20.9761 14.5889 20.9761 9.4111 17.7825 6.21752C14.5889 3.02395 9.41111 3.02395 6.21754 6.21752C3.02396 9.4111 3.02396 14.5889 6.21754 17.7825C9.41111 20.9761 14.5889 20.9761 17.7825 17.7825Z" fill="#B1B1B1"/>
<path opacity="0.7" d="M11.9976 20.1856C16.514 20.1856 20.1753 16.5243 20.1753 12.0078C20.1753 7.49138 16.514 3.83008 11.9976 3.83008C7.48112 3.83008 3.81982 7.49138 3.81982 12.0078C3.81982 16.5243 7.48112 20.1856 11.9976 20.1856Z" fill="#B4B4B4"/>
<path opacity="0.7" d="M11.9978 20.1616C16.5001 20.1616 20.1499 16.5118 20.1499 12.0095C20.1499 7.50724 16.5001 3.85742 11.9978 3.85742C7.49552 3.85742 3.8457 7.50724 3.8457 12.0095C3.8457 16.5118 7.49552 20.1616 11.9978 20.1616Z" fill="#B7B7B7"/>
<path opacity="0.7" d="M20.1395 12.3503C20.3375 7.85256 16.8518 4.04589 12.3541 3.84792C7.85627 3.64994 4.04961 7.13562 3.85163 11.6334C3.65366 16.1312 7.13934 19.9378 11.6371 20.1358C16.1349 20.3338 19.9416 16.8481 20.1395 12.3503Z" fill="#BBBBBB"/>
<path opacity="0.7" d="M17.746 17.7462C20.9195 14.5727 20.9195 9.42733 17.746 6.25378C14.5724 3.08023 9.4271 3.08023 6.25355 6.25378C3.08 9.42733 3.08 14.5727 6.25355 17.7462C9.4271 20.9198 14.5724 20.9198 17.746 17.7462Z" fill="#BEBEBE"/>
<path opacity="0.7" d="M11.9976 20.1357C16.4857 20.1357 20.124 16.4974 20.124 12.0093C20.124 7.52115 16.4857 3.88281 11.9976 3.88281C7.50944 3.88281 3.87109 7.52115 3.87109 12.0093C3.87109 16.4974 7.50944 20.1357 11.9976 20.1357Z" fill="#C2C2C2"/>
<path opacity="0.7" d="M11.9978 20.1099C16.4718 20.1099 20.0986 16.483 20.0986 12.009C20.0986 7.53507 16.4718 3.9082 11.9978 3.9082C7.52384 3.9082 3.89697 7.53507 3.89697 12.009C3.89697 16.483 7.52384 20.1099 11.9978 20.1099Z" fill="#C5C5C5"/>
<path opacity="0.7" d="M20.0885 12.3481C20.2852 7.87861 16.8214 4.09591 12.3519 3.89921C7.88242 3.70251 4.09973 7.16629 3.90303 11.6358C3.70633 16.1053 7.17011 19.888 11.6396 20.0847C16.1091 20.2814 19.8918 16.8176 20.0885 12.3481Z" fill="#C8C8C8"/>
<path opacity="0.7" d="M17.7282 17.7281C20.8918 14.5646 20.8918 9.43544 17.7282 6.2719C14.5647 3.10836 9.43558 3.10836 6.27204 6.2719C3.1085 9.43544 3.1085 14.5646 6.27204 17.7281C9.43558 20.8916 14.5647 20.8916 17.7282 17.7281Z" fill="#CCCCCC"/>
<path opacity="0.7" d="M11.998 20.0859C16.4579 20.0859 20.0732 16.4705 20.0732 12.0107C20.0732 7.55093 16.4579 3.93555 11.998 3.93555C7.53824 3.93555 3.92285 7.55093 3.92285 12.0107C3.92285 16.4705 7.53824 20.0859 11.998 20.0859Z" fill="#CFCFCF"/>
<path opacity="0.7" d="M11.998 20.0859C16.4579 20.0859 20.0732 16.4705 20.0732 12.0107C20.0732 7.55093 16.4579 3.93555 11.998 3.93555C7.53824 3.93555 3.92285 7.55093 3.92285 12.0107C3.92285 16.4705 7.53824 20.0859 11.998 20.0859Z" fill="#D3D3D3"/>
<path opacity="0.7" d="M20.037 12.3459C20.2324 7.90467 16.7905 4.14594 12.3493 3.95052C7.90809 3.7551 4.14936 7.19698 3.95394 11.6382C3.75852 16.0794 7.2004 19.8381 11.6416 20.0335C16.0828 20.229 19.8415 16.7871 20.037 12.3459Z" fill="#D6D6D6"/>
<path opacity="0.7" d="M17.6917 17.6918C20.8353 14.5483 20.8353 9.45167 17.6917 6.30816C14.5482 3.16464 9.45157 3.16464 6.30805 6.30816C3.16454 9.45168 3.16454 14.5483 6.30805 17.6918C9.45157 20.8354 14.5482 20.8354 17.6917 17.6918Z" fill="#D9D9D9"/>
<path opacity="0.7" d="M11.998 20.0342C16.4295 20.0342 20.022 16.4417 20.022 12.0103C20.022 7.57876 16.4295 3.98633 11.998 3.98633C7.56655 3.98633 3.97412 7.57876 3.97412 12.0103C3.97412 16.4417 7.56655 20.0342 11.998 20.0342Z" fill="#DDDDDD"/>
<path opacity="0.7" d="M11.998 20.0342C16.4295 20.0342 20.022 16.4417 20.022 12.0103C20.022 7.57876 16.4295 3.98633 11.998 3.98633C7.56655 3.98633 3.97412 7.57876 3.97412 12.0103C3.97412 16.4417 7.56655 20.0342 11.998 20.0342Z" fill="#E0E0E0"/>
<path opacity="0.7" d="M20.0114 12.3457C20.2062 7.91861 16.7752 4.17188 12.3482 3.97711C7.92111 3.78235 4.17438 7.2133 3.97961 11.6404C3.78484 16.0674 7.21579 19.8141 11.6429 20.0089C16.0699 20.2037 19.8166 16.7727 20.0114 12.3457Z" fill="#E4E4E4"/>
<path opacity="0.7" d="M12.1253 20.0082C16.5422 19.9378 20.0658 16.3002 19.9954 11.8833C19.9251 7.46642 16.2874 3.94287 11.8705 4.01323C7.45364 4.08359 3.93009 7.72122 4.00045 12.1381C4.07081 16.555 7.70844 20.0786 12.1253 20.0082Z" fill="#E7E7E7"/>
<path opacity="0.7" d="M11.9978 20.0083C16.4151 20.0083 19.9961 16.4273 19.9961 12.01C19.9961 7.59267 16.4151 4.01172 11.9978 4.01172C7.58047 4.01172 3.99951 7.59267 3.99951 12.01C3.99951 16.4273 7.58047 20.0083 11.9978 20.0083Z" fill="#EBEBEB"/>
<path opacity="0.7" d="M11.9976 19.9824C16.4007 19.9824 19.9702 16.4129 19.9702 12.0098C19.9702 7.60659 16.4007 4.03711 11.9976 4.03711C7.59438 4.03711 4.0249 7.60659 4.0249 12.0098C4.0249 16.4129 7.59438 19.9824 11.9976 19.9824Z" fill="#EEEEEE"/>
<path opacity="0.7" d="M19.9604 12.3454C20.1539 7.94662 16.7448 4.22386 12.346 4.03037C7.94727 3.83687 4.2245 7.24593 4.03101 11.6447C3.83752 16.0435 7.24657 19.7662 11.6453 19.9597C16.0441 20.1532 19.7669 16.7442 19.9604 12.3454Z" fill="#F1F1F1"/>
<path opacity="0.7" d="M12.1247 19.9553C16.5133 19.8854 20.0142 16.2711 19.9443 11.8825C19.8744 7.49392 16.2601 3.99295 11.8715 4.06286C7.48294 4.13278 3.98197 7.7471 4.05188 12.1357C4.1218 16.5242 7.73612 20.0252 12.1247 19.9553Z" fill="#F5F5F5"/>
<path opacity="0.7" d="M11.9978 19.9565C16.3868 19.9565 19.9448 16.3985 19.9448 12.0095C19.9448 7.6205 16.3868 4.0625 11.9978 4.0625C7.60878 4.0625 4.05078 7.6205 4.05078 12.0095C4.05078 16.3985 7.60878 19.9565 11.9978 19.9565Z" fill="#F8F8F8"/>
<path opacity="0.7" d="M11.9976 19.9307C16.3724 19.9307 19.9189 16.3841 19.9189 12.0093C19.9189 7.63441 16.3724 4.08789 11.9976 4.08789C7.62269 4.08789 4.07617 7.63441 4.07617 12.0093C4.07617 16.3841 7.62269 19.9307 11.9976 19.9307Z" fill="#FCFCFC"/>
<path opacity="0.7" d="M17.6015 17.6012C20.6949 14.5077 20.6949 9.49225 17.6015 6.39879C14.508 3.30533 9.49252 3.30533 6.39906 6.39879C3.3056 9.49225 3.3056 14.5077 6.39906 17.6012C9.49252 20.6947 14.508 20.6947 17.6015 17.6012Z" fill="#E79470"/>
</g>
</svg>
