<svg xmlns="http://www.w3.org/2000/svg" width="353" height="207" viewBox="0 0 353 207" fill="none">
<circle opacity="0.1" cx="176" cy="88" r="60" fill="#E13C3C"/>
<circle opacity="0.5" cx="176" cy="88" r="45" fill="#E13C3C"/>
<path d="M182.6 88.0013L194.975 75.6267C196.342 74.2595 196.342 72.0428 194.975 70.6777L193.325 69.028C191.957 67.6603 189.741 67.6603 188.375 69.028L176.001 81.4021L163.627 69.0254C162.259 67.6582 160.043 67.6582 158.678 69.0254L157.025 70.6751C155.658 72.0428 155.658 74.2595 157.025 75.6246L169.402 88.0013L157.028 100.375C155.66 101.743 155.66 103.96 157.028 105.325L158.678 106.975C160.045 108.342 162.262 108.342 163.627 106.975L176.001 94.6L188.375 106.975C189.743 108.342 191.96 108.342 193.325 106.975L194.975 105.325C196.342 103.957 196.342 101.741 194.975 100.375L182.6 88.0013Z" fill="white"/>
</svg>
