<svg width="20" height="20" viewBox="0 0 20 20" fill="none" xmlns="http://www.w3.org/2000/svg">
<path d="M10.0332 18.3057H17.5083C17.9668 18.3057 18.3389 17.9336 18.3389 17.4751V2.52492C18.3389 2.06645 17.9668 1.69438 17.5083 1.69438H10.0332C9.57391 1.69438 9.20266 1.32313 9.20266 0.863828C9.20266 0.404531 9.57391 0.0332031 10.0332 0.0332031H17.5083C18.8821 0.0332031 20 1.15117 20 2.52492V17.4751C20 18.8488 18.8821 19.9668 17.5083 19.9668H10.0332C9.57391 19.9668 9.20266 19.5955 9.20266 19.1362C9.20266 18.6769 9.57391 18.3057 10.0332 18.3057Z" fill="#FEFFFF"/>
<path d="M0.247504 9.40855L5.29735 4.42515C5.62293 4.10288 6.14949 4.10706 6.47176 4.43347C6.79403 4.75988 6.7907 5.28562 6.46344 5.60788L2.85465 9.16933H12.5249C12.9842 9.16933 13.3555 9.54058 13.3555 9.99988C13.3555 10.4592 12.9842 10.8305 12.5249 10.8305H2.85465L6.46344 14.3919C6.79067 14.7142 6.79317 15.2399 6.47176 15.5663C6.30899 15.7308 6.09469 15.8138 5.88039 15.8138C5.66942 15.8138 5.45848 15.7341 5.29735 15.5746L0.247504 10.5912C0.0896912 10.4351 3.8147e-06 10.2224 3.8147e-06 9.99984C3.8147e-06 9.77734 0.088871 9.56554 0.247504 9.40855Z" fill="#FEFFFF"/>
</svg>
