<svg width="20" height="20" viewBox="0 0 20 20" fill="none" xmlns="http://www.w3.org/2000/svg">
<path d="M17.5 11.2501C17.5 12.039 16.8603 12.6787 16.0714 12.6787C15.2825 12.6787 14.6428 12.039 14.6428 11.2501C14.6428 10.4612 15.2825 9.82153 16.0714 9.82153C16.8603 9.82153 17.5 10.4612 17.5 11.2501Z" fill="#FEFFFF"/>
<path d="M5.35714 11.2501C5.35714 12.039 4.71749 12.6787 3.92857 12.6787C3.13965 12.6787 2.5 12.039 2.5 11.2501C2.5 10.4612 3.13965 9.82153 3.92857 9.82153C4.71749 9.82153 5.35714 10.4612 5.35714 11.2501Z" fill="#FEFFFF"/>
<path d="M11.4287 9.82139C11.4287 10.6103 10.789 11.25 10.0001 11.25C9.21118 11.25 8.57153 10.6103 8.57153 9.82139C8.57153 9.03247 9.21118 8.39282 10.0001 8.39282C10.789 8.39282 11.4287 9.03247 11.4287 9.82139Z" fill="#FEFFFF"/>
<path d="M5.72423 19.4641C5.48689 19.1573 5.35784 18.7805 5.35714 18.3926V14.8212C5.35871 14.4599 5.42132 14.1013 5.54217 13.7608C5.48078 13.7566 5.41992 13.7498 5.35714 13.7498H2.5C1.99847 13.7484 1.50844 13.8996 1.09497 14.1833C0.410854 14.6487 0.000871929 15.4223 0 16.2498V17.6783C0.00122071 18.375 0.407017 19.0077 1.03969 19.2994C1.1635 19.358 1.29412 19.4013 1.42857 19.4283V15.5355H2.14286V19.4641H5.72423Z" fill="#FEFFFF"/>
<path d="M6.08197 19.8205C6.07833 19.8179 6.07534 19.8144 6.07153 19.8118V19.8205H6.08197Z" fill="#FEFFFF"/>
<path d="M13.6355 13.6476C13.4441 13.2901 13.1694 12.9839 12.8348 12.7547C12.8016 12.7301 12.7667 12.7078 12.7305 12.6879C12.3384 12.4483 11.888 12.3215 11.4287 12.3215H8.57153C7.19074 12.3215 6.07153 13.4407 6.07153 14.8215V18.393C6.07153 18.9847 6.55127 19.4644 7.14296 19.4644H7.5001V14.4644H8.21439V19.4644H11.7858V14.4644H12.5001V19.4644H12.8572C13.4489 19.4644 13.9287 18.9847 13.9287 18.393V14.8215C13.9289 14.4121 13.8281 14.0089 13.6355 13.6476Z" fill="#FEFFFF"/>
<path d="M18.9062 14.184C18.4925 13.8999 18.002 13.7484 17.5001 13.7498H14.643C14.5805 13.7498 14.5197 13.7566 14.4583 13.7608C14.579 14.1015 14.6414 14.4599 14.643 14.8212V18.3926C14.6423 18.7805 14.5132 19.1573 14.2759 19.4641H17.8572V15.5355H18.5715V19.4283C18.7039 19.4018 18.8324 19.3591 18.9543 19.3012C19.5901 19.011 19.9985 18.3771 20.0001 17.6783V16.2498C19.9992 15.4227 19.5898 14.6496 18.9062 14.184Z" fill="#FEFFFF"/>
<path d="M9.99999 4.82106C8.53951 4.81809 7.17842 5.56063 6.39037 6.7904C5.60232 8.02 5.4963 9.5668 6.10891 10.8925H8.14714C7.62398 9.99196 7.824 8.84589 8.62112 8.17572C9.41824 7.50573 10.5817 7.50573 11.3789 8.17572C12.176 8.84589 12.376 9.99196 11.8528 10.8925H13.8928C14.5056 9.56645 14.3994 8.0193 13.6108 6.78953C12.8224 5.55976 11.4608 4.81757 9.99999 4.82106Z" fill="#FEFFFF"/>
<path d="M18.5715 7.67847H16.643L16.5736 7.41026C16.4159 6.7966 16.1704 6.20891 15.8452 5.66518L15.7022 5.42627L17.0715 4.05455C17.1383 3.98811 17.1757 3.89777 17.1757 3.80361C17.1757 3.70944 17.1383 3.61911 17.0715 3.55284L15.5548 2.03568C15.4148 1.9021 15.1947 1.9021 15.0547 2.03568L13.683 3.4074L13.4441 3.26458C12.8996 2.939 12.3112 2.69364 11.6969 2.53564L11.4287 2.46589V0.53561C11.4287 0.338379 11.2688 0.178467 11.0715 0.178467H8.92868C8.73145 0.178467 8.57153 0.338379 8.57153 0.53561V2.46415L8.30333 2.53355C7.68966 2.69137 7.10181 2.93656 6.5579 3.26161L6.31899 3.40461L4.94761 2.03568C4.80741 1.90105 4.58611 1.90105 4.44591 2.03568L2.92875 3.55232C2.86196 3.61893 2.82429 3.70926 2.82429 3.80343C2.82429 3.89777 2.86196 3.98811 2.92875 4.05455L4.30047 5.42627L4.15765 5.66518C3.83224 6.20891 3.58688 6.7966 3.42906 7.41026L3.35896 7.67847H1.42868C1.23145 7.67847 1.07153 7.83838 1.07153 8.03561V10.1785C1.07153 10.3757 1.23145 10.5356 1.42868 10.5356H1.9119C2.12395 9.93223 2.59515 9.45546 3.19608 9.23643C3.79701 9.01723 4.46439 9.07879 5.0151 9.40419C5.00935 9.30532 5.0001 9.20731 5.0001 9.10704C5.0001 6.34563 7.2387 4.10704 10.0001 4.10704C12.7615 4.10704 15.0001 6.34563 15.0001 9.10704C15.0001 9.20731 14.9909 9.30532 14.9851 9.40419C15.5358 9.07879 16.2032 9.01723 16.8041 9.23643C17.4051 9.45546 17.8763 9.93223 18.0883 10.5356H18.5715C18.7688 10.5356 18.9287 10.3757 18.9287 10.1785V8.03561C18.9287 7.83838 18.7688 7.67847 18.5715 7.67847Z" fill="#FEFFFF"/>
</svg>
