<svg width="20" height="20" viewBox="0 0 20 20" fill="none" xmlns="http://www.w3.org/2000/svg">
<path d="M4.20126 1C3.67132 1 3.17902 1.26314 2.88494 1.7045L1.44301 3.86745C1.38141 3.9597 1.35185 4.06591 1.30273 4.1641H9.47276V1H4.20126Z" fill="#FEFFFF"/>
<path d="M18.5571 3.86741L17.1151 1.7045C16.8211 1.26314 16.2936 1 15.7637 1H10.5273V4.16406H18.6974C18.6483 4.06591 18.6187 3.9597 18.5571 3.86741Z" fill="#FEFFFF"/>
<path d="M18.9836 5.21875H1.01642C1.0148 5.25661 1 5.29195 1 5.32998V17.418C1 18.2903 1.70966 19 2.58203 19H17.418C18.2903 19 19 18.2903 19 17.418V5.32998C19 5.29195 18.9852 5.25661 18.9836 5.21875ZM12.1094 10.4922H7.89062C7.01826 10.4922 6.30859 9.78252 6.30859 8.91016C6.30859 8.03779 7.01826 7.32812 7.89062 7.32812H12.1094C12.9817 7.32812 13.6914 8.03779 13.6914 8.91016C13.6914 9.78252 12.9817 10.4922 12.1094 10.4922Z" fill="#FEFFFF"/>
</svg>
