<svg width="16" height="24" viewBox="0 0 16 24" fill="none" xmlns="http://www.w3.org/2000/svg">
<path d="M12.2347 15.84C12.2347 15.5747 12.024 15.36 11.764 15.36H4.23467C3.97467 15.36 3.764 15.5747 3.764 15.84C3.764 16.1053 3.97467 16.32 4.23467 16.32H11.764C12.024 16.32 12.2347 16.1053 12.2347 15.84ZM9.412 17.76C9.412 17.4947 9.20133 17.28 8.94133 17.28H4.23467C3.97467 17.28 3.764 17.4947 3.764 17.76C3.764 18.0253 3.97467 18.24 4.23467 18.24H8.94C9.20133 18.24 9.412 18.0253 9.412 17.76ZM7.52933 9.956V11.9707C6.872 11.8853 6.588 11.6013 6.588 11.04C6.588 10.7747 6.37733 10.56 6.11733 10.56C5.85733 10.56 5.64667 10.7747 5.64667 11.04C5.64667 11.696 5.91867 12.7467 7.52933 12.924V12.96C7.52933 13.2253 7.74 13.44 8 13.44C8.26 13.44 8.47067 13.2253 8.47067 12.96V12.924C10.0813 12.7467 10.3533 11.696 10.3533 11.04C10.3533 9.876 9.22667 9.476 8.47067 9.244V7.22933C9.128 7.31467 9.412 7.59867 9.412 8.16C9.412 8.42533 9.62267 8.64 9.88267 8.64C10.1427 8.64 10.3533 8.42533 10.3533 8.16C10.3533 7.504 10.0813 6.45333 8.47067 6.276V6.24C8.47067 5.97467 8.26 5.76 8 5.76C7.74 5.76 7.52933 5.97467 7.52933 6.24V6.276C5.91867 6.45333 5.64667 7.504 5.64667 8.16C5.64667 9.324 6.77333 9.724 7.52933 9.956ZM16 0.48V23.52C16 23.72 15.8787 23.8987 15.6973 23.9693C15.6413 23.9893 15.5853 24 15.5293 24C15.396 24 15.268 23.944 15.1787 23.8387L13.02 21.3627L10.8613 23.8387C10.772 23.94 10.644 24 10.5093 24C10.3747 24 10.248 23.94 10.1587 23.8387L8 21.3627L5.84133 23.8387C5.664 24.0427 5.31467 24.0427 5.13867 23.8387L2.98 21.3627L0.821333 23.8387C0.692 23.988 0.486667 24.0387 0.302667 23.9693C0.121333 23.8987 0 23.72 0 23.52V0.48C0 0.28 0.121333 0.101333 0.302667 0.0306667C0.488 -0.0373333 0.693333 0.012 0.821333 0.161333L2.98 2.63733L5.13867 0.161333C5.228 0.06 5.356 0 5.49067 0C5.62533 0 5.752 0.06 5.84133 0.161333L8 2.63733L10.1587 0.161333C10.336 -0.044 10.6827 -0.044 10.8613 0.161333L13.02 2.63733L15.1787 0.161333C15.308 0.012 15.5133 -0.0386667 15.6973 0.0306667C15.8787 0.101333 16 0.28 16 0.48ZM7.52933 7.22933C6.872 7.31467 6.588 7.59867 6.588 8.16C6.588 8.54267 6.98933 8.76133 7.52933 8.94667V7.22933ZM8.47067 11.9707V10.2533C9.01067 10.44 9.412 10.6573 9.412 11.04C9.412 11.6013 9.128 11.8853 8.47067 11.9707Z" fill="white"/>
</svg>
