<svg width="20" height="20" viewBox="0 0 20 20" fill="none" xmlns="http://www.w3.org/2000/svg">
<path d="M12.7025 6.28906H7.29716L6.90649 7.46094H13.0931L12.7025 6.28906Z" fill="#FEFFFF"/>
<path d="M11.7578 8.63281V10.3906C11.7578 10.7142 11.4955 10.9766 11.1719 10.9766H8.82813C8.50453 10.9766 8.24219 10.7142 8.24219 10.3906V8.63281H6.67969V12.9297H13.3203V8.63281H11.7578Z" fill="#FEFFFF"/>
<path d="M9.41406 8.63281H10.5859V9.80469H9.41406V8.63281Z" fill="#FEFFFF"/>
<path d="M19.6384 11.1875L18.5686 10.7444C18.6117 10.2502 18.6116 9.75226 18.5682 9.25617L19.6384 8.81289C19.9374 8.68906 20.0793 8.34629 19.9555 8.04734L18.4206 4.34168C18.2968 4.04269 17.954 3.90074 17.655 4.02457L16.5848 4.46789C16.2647 4.0864 15.9127 3.73422 15.5328 3.41515L15.9759 2.34539C16.0997 2.0464 15.9577 1.70367 15.6587 1.57984L11.9532 0.0449966C11.6542 -0.0788315 11.3114 0.0631216 11.1876 0.362106L10.7445 1.43183C10.2502 1.38875 9.75234 1.38894 9.25621 1.43234L8.81289 0.362106C8.68906 0.0631216 8.34629 -0.0788315 8.04734 0.0449966L4.34168 1.57992C4.04269 1.70375 3.90074 2.04652 4.02457 2.34547L4.46789 3.41574C4.08644 3.73582 3.73425 4.08777 3.41519 4.46777L2.34543 4.02465C2.04644 3.90082 1.70371 4.04277 1.57988 4.34175L0.0449966 8.0473C-0.0788315 8.34625 0.0631216 8.68902 0.362106 8.81285L1.43187 9.25597C1.38879 9.75023 1.38894 10.2482 1.43234 10.7443L0.362106 11.1875C0.0631216 11.3114 -0.0788315 11.6541 0.0449966 11.9531L1.57992 15.6587C1.70375 15.9577 2.04652 16.0996 2.34547 15.9758L3.4157 15.5325C3.73582 15.914 4.08773 16.2661 4.46769 16.5852L4.02461 17.6549C3.90078 17.9539 4.04273 18.2966 4.34172 18.4205L8.04734 19.9554C8.34632 20.0793 8.68906 19.9373 8.81289 19.6383L9.25601 18.5686C9.75031 18.6116 10.2482 18.6115 10.7443 18.5681L11.1876 19.6384C11.3114 19.9373 11.6542 20.0793 11.9531 19.9555L15.6587 18.4205C15.9577 18.2967 16.0997 17.9539 15.9759 17.655L15.5325 16.5847C15.914 16.2646 16.2662 15.9127 16.5852 15.5327L17.655 15.9758C17.954 16.0996 18.2968 15.9577 18.4206 15.6587L19.9555 11.9531C20.0793 11.6541 19.9373 11.3114 19.6384 11.1875ZM14.4924 13.5159C14.4924 13.8394 14.2301 14.1018 13.9065 14.1018H6.09398C5.77039 14.1018 5.50804 13.8394 5.50804 13.5159V8.04711C5.50804 7.98414 5.5182 7.92156 5.53812 7.86179L6.31937 5.51804C6.39914 5.27879 6.623 5.11742 6.87523 5.11742H13.1252C13.3774 5.11742 13.6013 5.27879 13.6811 5.51804L14.4623 7.86179C14.4823 7.92156 14.4924 7.9841 14.4924 8.04711V13.5159Z" fill="#FEFFFF"/>
</svg>
