<svg width="20" height="20" viewBox="0 0 20 20" fill="none" xmlns="http://www.w3.org/2000/svg">
<path d="M19.4353 2.10345C19.0585 1.72679 18.606 1.53857 18.077 1.53857H1.92312C1.39429 1.53857 0.941522 1.72679 0.564871 2.10345C0.188304 2.48018 0 2.93278 0 3.46174V16.5388C0 17.0678 0.188304 17.52 0.564871 17.8969C0.941522 18.2736 1.39424 18.4616 1.92312 18.4616H18.077C18.606 18.4616 19.0585 18.2736 19.4353 17.8969C19.8118 17.52 20 17.0675 20 16.5388V3.46174C20 2.93278 19.8118 2.48006 19.4353 2.10345ZM6.15401 16.5383C6.15401 16.6509 6.11785 16.7428 6.04565 16.815C5.97358 16.887 5.88151 16.9228 5.76919 16.9228H1.92312C1.81106 16.9228 1.71882 16.8869 1.64666 16.815C1.57455 16.7428 1.53856 16.6509 1.53856 16.5383V14.2305C1.53856 14.1182 1.57455 14.0262 1.64666 13.9544C1.71882 13.882 1.81106 13.846 1.92312 13.846H5.76932C5.8816 13.846 5.97383 13.882 6.04578 13.9544C6.11781 14.0262 6.15397 14.1182 6.15397 14.2305V16.5383H6.15401ZM6.15401 11.9232C6.15401 12.0353 6.11785 12.1275 6.04565 12.1995C5.97358 12.2716 5.88151 12.3076 5.76919 12.3076H1.92312C1.81106 12.3076 1.71882 12.2716 1.64666 12.1995C1.57455 12.1275 1.53856 12.0353 1.53856 11.9232V9.61539C1.53856 9.50324 1.57455 9.41104 1.64666 9.33893C1.71882 9.26698 1.81106 9.23095 1.92312 9.23095H5.76932C5.8816 9.23095 5.97366 9.26694 6.04578 9.33893C6.11781 9.41104 6.15397 9.50324 6.15397 9.61539V11.9232H6.15401ZM6.15401 7.30778C6.15401 7.42001 6.11785 7.51208 6.04565 7.58424C5.97358 7.65618 5.88151 7.69235 5.76919 7.69235H1.92312C1.81106 7.69235 1.71882 7.65618 1.64666 7.58424C1.57455 7.51204 1.53856 7.42001 1.53856 7.30778V5.00009C1.53856 4.88786 1.57455 4.79566 1.64666 4.72363C1.71882 4.65152 1.81106 4.61552 1.92312 4.61552H5.76932C5.8816 4.61552 5.97366 4.65152 6.04578 4.72363C6.11781 4.79566 6.15397 4.88786 6.15397 5.00009V7.30778H6.15401ZM12.3079 16.5383C12.3079 16.6509 12.2719 16.7428 12.2 16.815C12.1279 16.887 12.0358 16.9228 11.9234 16.9228H8.07692C7.96481 16.9228 7.87262 16.8869 7.80046 16.815C7.72835 16.7428 7.69236 16.6509 7.69236 16.5383V14.2305C7.69236 14.1182 7.72835 14.0262 7.80046 13.9544C7.87262 13.882 7.96481 13.846 8.07692 13.846H11.9232C12.0356 13.846 12.1278 13.882 12.1998 13.9544C12.2715 14.0262 12.3076 14.1182 12.3076 14.2305V16.5383H12.3079V16.5383ZM12.3079 11.9232C12.3079 12.0353 12.2719 12.1275 12.2 12.1995C12.1279 12.2716 12.0358 12.3076 11.9234 12.3076H8.07692C7.96481 12.3076 7.87262 12.2716 7.80046 12.1995C7.72835 12.1275 7.69236 12.0353 7.69236 11.9232V9.61539C7.69236 9.50324 7.72835 9.41104 7.80046 9.33893C7.87262 9.26698 7.96481 9.23095 8.07692 9.23095H11.9232C12.0356 9.23095 12.1278 9.26694 12.1998 9.33893C12.2715 9.41104 12.3076 9.50324 12.3076 9.61539V11.9232H12.3079ZM12.3079 7.30778C12.3079 7.42001 12.2719 7.51208 12.2 7.58424C12.1279 7.65618 12.0358 7.69235 11.9234 7.69235H8.07692C7.96481 7.69235 7.87262 7.65618 7.80046 7.58424C7.72835 7.51204 7.69236 7.42001 7.69236 7.30778V5.00009C7.69236 4.88786 7.72835 4.79566 7.80046 4.72363C7.87262 4.65152 7.96481 4.61552 8.07692 4.61552H11.9232C12.0356 4.61552 12.1278 4.65152 12.1998 4.72363C12.2715 4.79566 12.3076 4.88786 12.3076 5.00009V7.30778H12.3079ZM18.4615 16.5383C18.4615 16.6509 18.4255 16.7428 18.3536 16.815C18.2813 16.887 18.1891 16.9228 18.077 16.9228H14.2312C14.1187 16.9228 14.0265 16.8869 13.9546 16.815C13.8826 16.7428 13.8468 16.6509 13.8468 16.5383V14.2305C13.8468 14.1182 13.8826 14.0262 13.9546 13.9544C14.0265 13.882 14.1187 13.846 14.2312 13.846H18.077C18.1891 13.846 18.2813 13.882 18.3536 13.9544C18.4255 14.0262 18.4615 14.1182 18.4615 14.2305V16.5383ZM18.4615 11.9232C18.4615 12.0353 18.4255 12.1275 18.3536 12.1995C18.2813 12.2716 18.1891 12.3076 18.077 12.3076H14.2312C14.1187 12.3076 14.0265 12.2716 13.9546 12.1995C13.8826 12.1275 13.8468 12.0353 13.8468 11.9232V9.61539C13.8468 9.50324 13.8826 9.41104 13.9546 9.33893C14.0265 9.26698 14.1187 9.23095 14.2312 9.23095H18.077C18.1891 9.23095 18.2813 9.26694 18.3536 9.33893C18.4255 9.41104 18.4615 9.50324 18.4615 9.61539V11.9232ZM18.4615 7.30778C18.4615 7.42001 18.4255 7.51208 18.3536 7.58424C18.2813 7.65618 18.1891 7.69235 18.077 7.69235H14.2312C14.1187 7.69235 14.0265 7.65618 13.9546 7.58424C13.8826 7.51204 13.8468 7.42001 13.8468 7.30778V5.00009C13.8468 4.88786 13.8826 4.79566 13.9546 4.72363C14.0265 4.65152 14.1187 4.61552 14.2312 4.61552H18.077C18.1891 4.61552 18.2813 4.65152 18.3536 4.72363C18.4255 4.79566 18.4615 4.88786 18.4615 5.00009V7.30778Z" fill="#FEFFFF"/>
</svg>
