<svg width="38" height="41" viewBox="0 0 38 41" fill="none" xmlns="http://www.w3.org/2000/svg">
<path d="M11.5184 33.7699C10.3083 31.5999 9.6684 28.9399 9.6684 26.0599C9.6684 21.2199 13.8584 17.28 18.9984 17.28C24.1483 17.28 28.3284 21.22 28.3284 26.0599C28.3284 26.61 28.7784 27.06 29.3284 27.06C29.8784 27.06 30.3284 26.61 30.3284 26.0599C30.3284 20.1099 25.2484 15.2799 18.9985 15.2799C12.7485 15.2799 7.66833 20.1199 7.66833 26.0599C7.66833 29.28 8.39837 32.2899 9.77836 34.7499C11.1284 37.1599 12.0684 38.2699 13.7984 40.0199C13.9983 40.2198 14.2484 40.3199 14.5083 40.3199C14.7584 40.3199 15.0183 40.2299 15.1983 40.0199C15.5984 39.6399 15.5984 38.9999 15.2084 38.6099C13.6683 37.06 12.8084 36.07 11.5184 33.7699Z" fill="url(#paint0_linear_6249_2415)"/>
<path d="M7.87825 5.56997C11.3083 3.69994 15.0482 2.74997 19.0183 2.74997C22.9982 2.74997 26.3282 3.6 30.1583 5.58C30.3083 5.65003 30.4583 5.68997 30.6183 5.68997C30.9783 5.68997 31.3283 5.49 31.5083 5.14997C31.7583 4.65993 31.5683 4.05 31.0783 3.79997C26.9983 1.69003 23.2783 0.75 19.0183 0.75C14.7182 0.75 10.6483 1.78003 6.91825 3.81C6.42822 4.08 6.25825 4.68 6.51822 5.17003C6.78822 5.65997 7.38822 5.83003 7.87825 5.56997Z" fill="url(#paint1_linear_6249_2415)"/>
<path d="M18.9283 10.41C12.4783 10.41 6.5783 14.02 3.9083 19.6C2.99827 21.49 2.53833 23.67 2.53833 26.07C2.53833 28.77 3.01833 31.35 3.9983 33.9799C4.19827 34.5 4.76827 34.7599 5.2883 34.5699C5.80833 34.3699 6.0683 33.7999 5.87827 33.2799C4.6882 30.09 4.54823 27.63 4.54823 26.07C4.54823 23.97 4.93823 22.08 5.71823 20.46C8.05823 15.5599 13.2482 12.4 18.9382 12.4C26.9282 12.4 33.4282 18.53 33.4282 26.07C33.4282 28.2199 31.5582 29.9599 29.2682 29.9599C26.9783 29.9599 25.1083 28.2099 25.1083 26.07C25.1083 22.8199 22.3483 20.1799 18.9482 20.1799C15.5482 20.1799 12.7882 22.8199 12.7882 26.07C12.7882 30.0199 14.3282 33.73 17.1182 36.51C19.2782 38.6599 21.3583 39.84 24.5482 40.71C24.6282 40.74 24.7182 40.75 24.8082 40.75C25.2481 40.75 25.6482 40.46 25.7682 40.02C25.9182 39.49 25.5982 38.94 25.0681 38.79C22.2481 38.02 20.4081 36.9799 18.5181 35.1C16.1081 32.7 14.7781 29.49 14.7781 26.08C14.7781 23.93 16.6482 22.19 18.9381 22.19C21.228 22.19 23.0981 23.9401 23.0981 26.08C23.0981 29.33 25.8681 31.97 29.2581 31.97C32.6481 31.97 35.4181 29.33 35.4181 26.08C35.4182 17.44 28.0182 10.41 18.9283 10.41Z" fill="url(#paint2_linear_6249_2415)"/>
<path d="M36.8182 14.55C34.8282 11.77 32.3082 9.58997 29.3183 8.05003C23.0183 4.81004 14.9783 4.82007 8.6883 8.07C5.6883 9.61997 3.15827 11.82 1.17827 14.62C0.858304 15.07 0.968273 15.69 1.41827 16.0101C1.59827 16.1301 1.79824 16.1901 1.9983 16.1901C2.30833 16.1901 2.61827 16.0501 2.81833 15.7801C4.6083 13.2401 6.89833 11.2501 9.60836 9.85013C15.3384 6.89016 22.6684 6.88013 28.4083 9.83016C31.1083 11.2102 33.3883 13.1902 35.1883 15.7102C35.5083 16.1602 36.1383 16.2602 36.5883 15.9401C37.0383 15.62 37.1383 15 36.8182 14.55Z" fill="url(#paint3_linear_6249_2415)"/>
<path d="M30.9283 34.4299C30.1284 34.5698 29.3184 34.6199 28.8384 34.6199C26.8384 34.6199 25.1784 34.1499 23.7684 33.1899C21.3384 31.5399 19.8884 28.88 19.8884 26.0699C19.8884 25.5199 19.4384 25.0699 18.8883 25.0699C18.3383 25.0699 17.8883 25.5199 17.8883 26.0699C17.8883 29.5499 19.6683 32.8299 22.6383 34.8499C24.3683 36.0199 26.4584 36.6199 28.8383 36.6199C29.1183 36.6199 30.1083 36.6098 31.2783 36.3998C31.8183 36.2998 32.1883 35.7799 32.0883 35.2399C31.9883 34.6999 31.4683 34.3299 30.9283 34.4299Z" fill="url(#paint4_linear_6249_2415)"/>
<defs>
<linearGradient id="paint0_linear_6249_2415" x1="15.0329" y1="15.2799" x2="25.7733" y2="39.5789" gradientUnits="userSpaceOnUse">
<stop stop-color="#DAB451"/>
<stop offset="1" stop-color="#988050"/>
</linearGradient>
<linearGradient id="paint1_linear_6249_2415" x1="14.594" y1="0.75" x2="15.0404" y2="6.44673" gradientUnits="userSpaceOnUse">
<stop stop-color="#DAB451"/>
<stop offset="1" stop-color="#988050"/>
</linearGradient>
<linearGradient id="paint2_linear_6249_2415" x1="13.2243" y1="10.41" x2="24.657" y2="41.3845" gradientUnits="userSpaceOnUse">
<stop stop-color="#DAB451"/>
<stop offset="1" stop-color="#988050"/>
</linearGradient>
<linearGradient id="paint3_linear_6249_2415" x1="12.6981" y1="5.62628" x2="14.1165" y2="17.7138" gradientUnits="userSpaceOnUse">
<stop stop-color="#DAB451"/>
<stop offset="1" stop-color="#988050"/>
</linearGradient>
<linearGradient id="paint4_linear_6249_2415" x1="22.5086" y1="25.0699" x2="26.4468" y2="37.1881" gradientUnits="userSpaceOnUse">
<stop stop-color="#DAB451"/>
<stop offset="1" stop-color="#988050"/>
</linearGradient>
</defs>
</svg>
