<svg width="20" height="16" viewBox="0 0 20 16" fill="none" xmlns="http://www.w3.org/2000/svg">
<path d="M18.7301 0.222656H1.26986C0.56859 0.222656 0 0.791211 0 1.49248V14.5084C0 15.2096 0.56859 15.7782 1.26986 15.7782H18.7301C19.4314 15.7782 20 15.2096 20 14.5084V1.49248C20 0.791211 19.4314 0.222656 18.7301 0.222656ZM18.7301 1.49248V10.7277L16.2276 8.45247C15.8514 8.11057 15.273 8.12422 14.9136 8.48391L12.3809 11.0163L7.38699 5.0512C7.0095 4.6004 6.31807 4.59597 5.93492 5.04136L1.26986 10.463V1.49248H18.7301ZM13.3333 4.82582C13.3333 3.86136 14.1149 3.07977 15.0793 3.07977C16.0438 3.07977 16.8254 3.86136 16.8254 4.82582C16.8254 5.79027 16.0438 6.57182 15.0793 6.57182C14.1149 6.57186 13.3333 5.79027 13.3333 4.82582Z" fill="#FEFFFF"/>
</svg>
